<svg xmlns="http://www.w3.org/2000/svg" xmlns:xlink="http://www.w3.org/1999/xlink" viewBox="0 0 780.57 460.61" xmlns:v="https://vecta.io/nano"><style><![CDATA[.k{letter-spacing:0.02em}.m{letter-spacing:-0.04em}.n{letter-spacing:-0.04em}.o{letter-spacing:-0.04em}.p{letter-spacing:-0.07em}.q{letter-spacing:-0.04em}.r{fill:#774186}.s{fill:#fff}.t{opacity:.6}.u{opacity:.8}.v{fill:#76478d}.w{fill:#424775}.x{fill:#1c151b}.y{fill:#3e5176}.z{fill:#f0f0f0}.AA{font-family:AachenBT-Bold,Aachen BT}.AB{font-weight:700}.AC{opacity:.5}.AD{fill:#ffa8a7}.AE{opacity:.15}.AF{fill:#475b7f}]]></style><ellipse cx="423.59" cy="336.46" rx="224.23" ry="124.15" class="AF"/><g class="y"><path d="M625.42 317.24l-125 72.2a3.69 3.69 0 0 1-3.36 0l-180.22-104a1 1 0 0 1 0-1.94l125-72.2a3.69 3.69 0 0 1 3.36 0l180.22 104a1 1 0 0 1 0 1.94z"/><ellipse cx="334.96" cy="386.49" rx="75.08" ry="43.35"/><ellipse cx="426.38" cy="336.23" rx="59.1" ry="34.12"/><ellipse cx="557.82" cy="381.96" rx="37.1" ry="21.42"/></g><path d="M503.15 260.45v111a2.48 2.48 0 0 1-1.12 1.94l-2.38 1.37a2.46 2.46 0 0 1-2.24 0l-2.38-1.37a2.48 2.48 0 0 1-1.12-1.94v-111c0-.71.5-1 1.12-.64l2.38 1.37a2.46 2.46 0 0 0 2.24 0l2.38-1.37c.62-.36 1.12-.07 1.12.64z" class="v"/><path d="M497.41 374.71l-2.38-1.37a2.48 2.48 0 0 1-1.12-1.94V260.45c0-.71.5-1 1.12-.64l2.38 1.37a2.48 2.48 0 0 1 1.12 1.91v111c0 .69-.5 1-1.12.62z" class="w"/><path d="M604.66 201.81v110.94a2.45 2.45 0 0 1-1.12 1.94l-2.38 1.4a2.52 2.52 0 0 1-2.24 0l-2.38-1.38a2.48 2.48 0 0 1-1.12-1.94V201.81c0-.71.51-1 1.12-.65l2.38 1.38a2.46 2.46 0 0 0 2.24 0l2.38-1.38c.62-.35 1.12-.07 1.12.65z" class="v"/><path d="M598.92 316.09l-2.38-1.38a2.48 2.48 0 0 1-1.12-1.94V201.81c0-.71.51-1 1.12-.65l2.38 1.38a2.47 2.47 0 0 1 1.12 1.94v110.94c0 .67-.5 1-1.12.67z" class="w"/><path d="M366.44 181.56v111a2.48 2.48 0 0 1-1.12 1.94l-2.38 1.37a2.46 2.46 0 0 1-2.24 0l-2.38-1.37a2.48 2.48 0 0 1-1.12-1.94v-111c0-.71.5-1 1.12-.64l2.41 1.37a2.46 2.46 0 0 0 2.24 0l2.38-1.37c.59-.36 1.09-.07 1.09.64z" class="v"/><path d="M360.73 295.82l-2.38-1.37a2.48 2.48 0 0 1-1.12-1.94v-111c0-.71.5-1 1.12-.64l2.38 1.42a2.48 2.48 0 0 1 1.12 1.94v110.94c-.03.72-.53 1.01-1.12.65z" class="w"/><use xlink:href="#B" class="r"/><use xlink:href="#B" class="t"/><use xlink:href="#C" class="r"/><use xlink:href="#C" class="AC"/><use xlink:href="#D" class="r"/><use xlink:href="#D" opacity=".4"/><path d="M499.02 206.33l-26.09 15.1a3.25 3.25 0 0 1-2.93 0l-77.08-44.44a.89.89 0 0 1 0-1.69l26.09-15.11a3.26 3.26 0 0 1 2.92 0l77.09 44.45a.89.89 0 0 1 0 1.69z" class="AE"/><path d="M394.5 172.62a1 1 0 0 1 .61-.84l24.51-14.15a3.2 3.2 0 0 1 2.92 0l74.8 43.25a1 1 0 0 1 .6.85v2.57a1 1 0 0 1-.6.84l-24.5 14.15a3.22 3.22 0 0 1-2.93 0l-74.8-43.2a1 1 0 0 1-.61-.84z" class="x"/><path d="M472.84 216.66l24.5-14.09a.89.89 0 0 0 0-1.69l-74.8-43.25a3.2 3.2 0 0 0-2.92 0l-24.51 14.15a.89.89 0 0 0 0 1.69l74.8 43.18a3.25 3.25 0 0 0 2.93.01z" class="v"/><path d="M471.47 217v2.63a2.92 2.92 0 0 0 1.37-.34l24.49-14.14a1 1 0 0 0 .61-.85v-2.58a1 1 0 0 1-.61.85l-24.49 14.09a3 3 0 0 1-1.37.34z" class="x"/><path d="M399.04 172.81l2.42-1.4 3.29 1.9-2.44 1.45-3.29-1.9zm3.8-2.19h0l2.43-1.4 2.59 1.49-2.44 1.38-2.58-1.49zm.8 4.85h0l2.43-1.4 2.58 1.49-2.44 1.45-2.58-1.49zm3-7l2.43-1.4 4.17 2.42-2.44 1.44-4.17-2.41zm.09 4.44l2.42-1.41 2.06 1.19-2.43 1.4-2.05-1.21zm.8 4.84h0l2.42-1.4 2.59 1.49-2.45 1.45-2.58-1.49zm2.56-2.9h0l2.42-1.4 2.05 1.19-2.44 1.45-2.05-1.19zm.34-8.58h0l2.43-1.4 3.29 1.9-2.42 1.38-3.29-1.9zm1 13.73l2.42-1.4 18.68 10.78-2.44 1.45-18.68-10.78zm.7-8.37l2.42-1.4 2.05 1.19-2.44 1.44-2.05-1.18zm1.33 5.16h0l2.42-1.4 2 1.19-2.44 1.45-2-1.19zm.77-12.7l2.42-1.4 2.06 1.19-2.44 1.44-2.03-1.23zm.8 4.85l2.42-1.4 2.06 1.18-2.42 1.37-2.06-1.18zm.45 4.64l2.42-1.4 2.05 1.19-2.44 1.44-2.05-1.18zm1.33 5.16h0l2.42-1.4 2.05 1.19-2.44 1.45-2.05-1.19zm.78-12.71l2.42-1.4 2.06 1.19-2.44 1.44-2.05-1.18zm.8 4.85l2.42-1.4 2.06 1.18-2.44 1.45-2.05-1.18zm.45 4.64h0l2.42-1.4 2.05 1.19-2.44 1.44-2.05-1.18zm0-14.09l2.42-1.4 2.59 1.49-2.45 1.45-2.58-1.49zm1.33 19.25h0l2.42-1.4 2.05 1.19-2.44 1.45-2.05-1.19zm.78-12.71l2.42-1.4 2.06 1.19-2.42 1.33-2-1.18zm.8 4.85l2.42-1.4 2.06 1.18-2.44 1.45-2.06-1.26zm.45 4.64l2.42-1.4 2 1.19-2.44 1.44-2-1.18zm1.33 5.16h0l2.42-1.4 2.05 1.19-2.44 1.45-2.05-1.19zm.66-18.1l2.43-1.4 2 1.18-2.44 1.45-2-1.18zm.12 5.39l2.42-1.4 2.06 1.19-2.43 1.39-2-1.18zm.8 4.85l2.42-1.4 2.06 1.18-2.44 1.45-2.05-1.18zm.45 4.64l2.42-1.4 2.05 1.19-2.44 1.44-2.05-1.18zm1.33 5.16l2.44-1.47 2 1.19-2.44 1.45-2-1.19zm.66-18.1l2.42-1.4 2.06 1.18-2.44 1.45-2.05-1.18zm.12 5.39l2.42-1.4 2.06 1.19-2.42 1.36-2-1.18zm.8 4.85l2.42-1.4 2.06 1.18-2.44 1.45-2.05-1.18zm.45 4.64h0l2.43-1.4 2.05 1.19-2.44 1.44-2.05-1.18zm1.33 5.16l2.42-1.41 2.05 1.19-2.44 1.45-2.05-1.19zm.66-18.1l2.43-1.4 2.05 1.18-2.44 1.45-2.05-1.18zm.12 5.39l2.43-1.4 2.05 1.19-2.45 1.44-2-1.18zm.37 17.76h0l2.43-1.4 2.58 1.49-2.44 1.45-2.58-1.49zm.43-12.91l2.42-1.4 2.06 1.18-2.44 1.45-2.05-1.18zm.45 4.64h0l2.43-1.4 2.02 1.11-2.44 1.44-2.05-1.18zm1.33 5.16h0l2.42-1.4 2.06 1.19-2.45 1.45-2.05-1.19zm.66-18.1l2.43-1.4 2.03 1.15-2.44 1.45-2.05-1.18zm.12 5.39l2.43-1.4 2.05 1.19-2.44 1.44-2.05-1.18zm.8 4.85l2.43-1.4 2 1.18-2.44 1.45-2-1.18zm.1 13.21l2.43-1.4 2.58 1.49-2.44 1.45-2.58-1.49zm.35-8.57l2.42-1.4 2 1.19-2.33 1.36-2-1.18zm1.33 5.16h0l2.42-1.4 2.06 1.19-2.45 1.45-2.05-1.19zm.78-12.71l2.43-1.4 2 1.19-2.44 1.44-2.01-1.26zm.8 4.85l2.43-1.4 2.05 1.18-2.44 1.45-2.05-1.18zm.45 4.64l2.42-1.4 2.05 1.19-2.44 1.44-2.03-1.3zm.1-14l2.43-1.4 2.05 1.19-2.44 1.45-2.04-1.31zm.08 22.91h0l2.43-1.4 2.58 1.49-2.46 1.34-2.58-1.49zm1.15-3.72l2.42-1.41 2.06 1.19-2.45 1.45-2-1.19zm.78-12.71h0l2.42-1.4 2.06 1.19-2.44 1.44-2.05-1.18zm.8 4.85l2.43-1.4 2.05 1.18-2.44 1.45-2.05-1.18zm.45 4.64l2.42-1.4 2.06 1.19-2.45 1.44-2.03-1.27zm.1-14l2.43-1.4 2.05 1.19-2.44 1.45-2-1.19zm.62 23.22h0l2.43-1.41 3.29 1.9-2.44 1.45-3.29-1.9zm.61-4l2.42-1.41 6.48 3.74-2.44 1.45-6.42-3.91zm.78-12.71l2.43-1.4 2.05 1.19-2.44 1.44-2.05-1.18zm.8 4.85l2.43-1.4 2.03 1-2.44 1.45-2.05-1.18zm.45 4.64l2.42-1.4 2.06 1.19-2.47 1.27-2-1.18zm.1-14l2.43-1.4 2.05 1.19-2.44 1.45-2.05-1.19zm2 6.48l2.43-1.4 2.05 1.19-2.44 1.44-2.05-1.18zm.55 17.86l2.42-1.4 2.06 1.18-2.45 1.45-2-1.18zm.25-13l2.43-1.4 2 1.18-2.32 1.24-2-1.18zm.45 4.64h0l2.42-1.4 1.88 1.08a1.2 1.2 0 0 0 .59.13 1.33 1.33 0 0 0 .62-.13l3.19-1.84 2.4 1.39-6.23 3.64-4.89-2.82zm.1-14l2.43-1.4 2.05 1.19-2.42 1.19-2.05-1.19zm2 6.48l2.42-1.4 2.06 1.19-2.44 1.44-2-1.18zm.55 17.86l2.42-1.4 2.06 1.18-2.45 1.45-2-1.18zm.25-13l2.43-1.4 2.05 1.18-2.44 1.45-2.05-1.18zm2-8.55l2.42-1.4 2.06 1.18-2.45 1.45-2.05-1.18zm.55 5.64l2.42-1.4 2.06 1.19-2.44 1.44-2.05-1.18zm.55 17.86l2.43-1.4 2.05 1.18-2.45 1.45-2-1.18zm.44-4.13h0l2.42-1.4 2.06 1.19-2.45 1.45-2-1.42zm1.82-17.43l2.42-1.4 2.05 1.18-2.44 1.45-2.05-1.18zm.55 5.64l2.43-1.4 3.64 2.1-2.44 1.45-3.64-2.1zm1.26 18.27l2.42-1.4 5.42 3.12-2.45 1.45-5.41-3.12zm.6-12.81h0l2.43-1.4 2.05 1.19-2.44 1.44-2.05-1.18zm.95-9.16l2.42-1.4 2.05 1.18-2.43 1.2-2-1.18zm2.25 19.78l2.43-1.4 2.05 1.19-2.44 1.45-2.05-1.19zm.16-8.68h0l2.43-1.4 2 1.19-2.44 1.44-2-1.18zm.44-4.13l2.43-1.4 2 1.18-2.44 1.45-2-1.18zm.51-5l2.42-1.4 2 1.18-2.44 1.45-2-1.18zm1.81 23.91l2.42-1.4 2.06 1.18-2.45 1.45-2-1.18zm.44-4.13l2.43-1.4 2 1.19-2.44 1.45-2-1.19zm.16-8.68h0l2.43-1.4 2.05 1.19-2.44 1.44-2.05-1.18zm.28 4.54h0l2.43-1.4 2 1.19-2.44 1.44-2-1.18zm.16-8.67l2.43-1.4 2.05 1.18-2.44 1.45-2.05-1.18zm1.25-4.6l2.42-1.4 2.06 1.18-2.39 1.19-2.05-1.18zm1.07 23.48l6.22-3.6 2.05 1.19-6.23 3.64-2.06-1.18zm.44-4.13l2.43-1.4 2.05 1.19-2.41 1.16-2-1.19zm.44-4.14h0l2.43-1.4 2.05 1.19-2.44 1.44-2.01-1.47zm.16-8.67l2.43-1.4 2.05 1.18-2.44 1.45-2.05-1.18zm.27 4.54l2.43-1.4 2.05 1.18-2.44 1.45-2.05-1.18zm1-9.14l2.42-1.4 2.06 1.18-2.44 1.45-2.05-1.18zm1.95 15.21h0l2.43-1.4 2.05 1.19-2.44 1.45-2.03-1.42zm.43-4.13l2.43-1.4 2.05 1.18-2.41 1.17-2.05-1.18zm.44-4.13l2.42-1.4 2.06 1.18-2.45 1.45-2-1.18zm.54-5l2.42-1.4 2.06 1.18-2.44 1.45-2.05-1.18zm1.95 15.21h0l6.23-3.59 2 1.18-6.24 3.65-2.05-1.19zm.43-4.13l2.43-1.4 2 1.18-2.44 1.45-2.05-1.18zm.44-4.13l2.42-1.4 2.06 1.18-2.46 1.16-2-1.18zm2.23-5.17h0l1-.61 2.06 1.19-1.06.65-2-1.18zm1.13 7.11l2.42-1.4 2.06 1.18-2.45 1.45-2-1.18zm2.23-5.17l1-.61 2.06 1.19-1.06.65-2-1.18zm1.13 7.11l2.42-1.4 2.06 1.18-2.45 1.45-2-1.18zm2.23-5.17l1-.61 2.06 1.19-1.06.65-2-1.18zm3.35 1.94l1-.61 2.06 1.19-1.06.65-2-1.18z" class="r"/><path d="M559.31 209.26l22.95-13.25-114.76-66.26L444.55 143l114.76 66.26z" class="AE"/><path d="M494.32 187.69l-16.38-9.48c-1.69-1-2.54-2.25-2.54-3.53v-2.28l15.42-8.75a3.62 3.62 0 0 0 1.63-2.83v-20.2l28.62 16.54v20.2a3.62 3.62 0 0 1-1.63 2.83l-12.88 7.5a13.54 13.54 0 0 1-12.24 0z" class="y"/><path d="M514.2 180.94v2.27l5.24-3a3.6 3.6 0 0 0 1.63-2.83v-20.2l-5.45-3.15-.35 4.21 3.82 2.22v15.78a3.57 3.57 0 0 1-1.63 2.83z" fill="#e0e0e0"/><path d="M519.09 176.22a3.6 3.6 0 0 1-1.63 2.83l-10.9 6.36a13.54 13.54 0 0 1-12.24 0l-16.39-9.48c-3.38-1.94-3.38-5.11 0-7.06l10.91-6.36a3.6 3.6 0 0 0 1.63-2.82V143.9l28.62 16.54z" class="AF"/><path d="M485.52 164.43h0l3.32-1.92a3.6 3.6 0 0 0 1.63-2.82V143.9l28.62 16.54v15.78a3.6 3.6 0 0 1-1.63 2.83l-3.26 1.89zm-10.12 7.97v2.28c0 1.28.85 2.55 2.53 3.53l16.39 9.47a12.32 12.32 0 0 0 5.84 1.45v-2.27a12.32 12.32 0 0 1-5.84-1.45l-16.39-9.48c-1.68-.97-2.53-2.25-2.53-3.53z" fill="#ebebeb"/><path d="M565.05 198.02a4.37 4.37 0 0 1-4-.07l-110.64-63.86a4.49 4.49 0 0 1-2-3.53V33.63a3.83 3.83 0 0 1 5.87-3.39l110.68 63.91a4.49 4.49 0 0 1 2 3.53v96.88a4.36 4.36 0 0 1-1.91 3.46z" class="w"/><path d="M561.1 197.94l-110.69-63.85a4.49 4.49 0 0 1-2-3.53V33.62c0-1.3.91-1.82 2-1.17l110.69 63.9a4.52 4.52 0 0 1 2 3.53v96.89c.04 1.32-.88 1.82-2 1.17z" class="v"/><path d="M561.4 198.35a3.81 3.81 0 0 0 5.56-3.54v-10.9l-3.82 2.18v10.9c0 1.22-.75 1.75-1.74 1.36z" fill="#e0e0e0"/><path d="M563.14 186.09v10.9c0 1.3-.92 1.83-2 1.18l-110.73-63.88a4.49 4.49 0 0 1-2-3.53v-10.9z" class="s"/><use xlink:href="#E" class="r"/><use xlink:href="#E" class="s AC"/><path d="M505.73 157.16a4.24 4.24 0 0 1 1.91 3.31c0 1.22-.86 1.72-1.91 1.11a4.24 4.24 0 0 1-1.92-3.32c.03-1.17.92-1.71 1.92-1.1z" class="w"/><path d="M562.54 97.87a4.4 4.4 0 0 1 .6 2v86.22l3.82-2.21v-86.2a4.2 4.2 0 0 0-.6-2z" class="x"/><path d="M466.48 13.62a1.13 1.13 0 0 1 0-.18h0a.84.84 0 0 1 0-.17.8.8 0 0 1 .11-.25.33.33 0 0 1 .06-.1l.06-.07a.8.8 0 0 1 .13-.13h0a1 1 0 0 1 .17-.1 1.43 1.43 0 0 1 1.31.17L597.5 87.33a4.35 4.35 0 0 1 2 3.39v93.49h0v.43a1.33 1.33 0 0 1-.7 1.17l-.09.06-.1.06h-.17a1 1 0 0 1-.25 0 1.29 1.29 0 0 1-.64-.19h0 0l-1.82-1.05-127.31-73.48a4.32 4.32 0 0 1-1.95-3.38v-94l.01-.21z" class="w"/><g class="r"><path d="M467.11 12.57a1.43 1.43 0 0 1 1.31.17L597.6 87.28a4.35 4.35 0 0 1 2 3.39v6.42l2.49-1.46V89.3a4.32 4.32 0 0 0-1.95-3.38L470.91 11.33a1.36 1.36 0 0 0-1.41-.12l-2.39 1.36z"/><path d="M466.47 13.85c0-1.23.88-1.73 1.95-1.11L597.6 87.29a4.29 4.29 0 0 1 2 3.38v6.42L466.47 20.26z"/></g><g class="AC s"><path d="M468.42 12.74L597.6 87.29a4 4 0 0 1 1.37 1.44l2.48-1.43a3.91 3.91 0 0 0-1.36-1.43L470.92 11.33a1.38 1.38 0 0 0-1.42-.12l-2.38 1.36a1.38 1.38 0 0 1 1.3.17z"/></g><path d="M602.05 95.59v-6.34a4 4 0 0 0-.59-2l-2.49 1.43a3.84 3.84 0 0 1 .59 1.94v6.47z" class="AE"/><path d="M595.15 88.63a2.91 2.91 0 0 1 1.1 2.34c0 .93-.49 1.41-1.1 1.06a2.91 2.91 0 0 1-1.1-2.34c0-.93.49-1.41 1.1-1.06zm-3.97-2.29a2.89 2.89 0 0 1 1.1 2.33c0 .94-.49 1.41-1.1 1.06a2.89 2.89 0 0 1-1.1-2.33c0-.94.49-1.41 1.1-1.06zm-3.97-2.25a2.91 2.91 0 0 1 1.1 2.34c0 .93-.49 1.41-1.1 1.06a2.92 2.92 0 0 1-1.1-2.34c0-.99.49-1.46 1.1-1.06z" class="w"/><path d="M598.85 185.78l.1-.06 2.06-1.19a2.06 2.06 0 0 0 1-1.51 2.64 2.64 0 0 0 0-.28V95.58l-2.5 1.47v87.55a1.29 1.29 0 0 1-.61 1.11h-.06 0z" opacity=".9" class="x"/><path d="M506.04 53.53l27.23 15.69a1.48 1.48 0 0 1 .7 1.15c0 .42-.31.58-.7.35l-27.23-15.69a1.49 1.49 0 0 1-.69-1.15c0-.42.31-.57.69-.35z" class="r"/><path d="M516.45 83.57l10.28 5.94a1.48 1.48 0 0 1 .69 1.15c0 .41-.31.57-.69.35l-10.28-5.92a1.46 1.46 0 0 1-.7-1.15c-.02-.43.31-.59.7-.37zm0 6.01l10.28 5.93a1.51 1.51 0 0 1 .69 1.16c0 .41-.31.57-.69.35l-10.28-5.93a1.48 1.48 0 0 1-.7-1.15c-.02-.43.31-.58.7-.36z" class="y"/><g class="r"><path d="M535.96 70.77l54.53 31.4a1.51 1.51 0 0 1 .69 1.16c0 .41-.31.57-.69.35l-54.53-31.4a1.51 1.51 0 0 1-.69-1.16c0-.41.31-.57.69-.35zm-19.29 54.93l16.6 9.61a1.46 1.46 0 0 1 .7 1.15c0 .41-.31.57-.7.35l-16.6-9.61a1.48 1.48 0 0 1-.69-1.15c0-.41.31-.57.69-.35zm19.29 11.16l54.53 31.44a1.49 1.49 0 0 1 .69 1.15c0 .42-.31.57-.69.35l-54.53-31.44a1.49 1.49 0 0 1-.69-1.15c0-.42.31-.57.69-.35z"/><use xlink:href="#F"/></g><use xlink:href="#F" class="s t"/><use xlink:href="#G" class="r"/><use xlink:href="#G" class="s t"/><use xlink:href="#H" class="r"/><use xlink:href="#H" class="s t"/><use xlink:href="#I" class="r"/><use xlink:href="#I" class="s t"/><use xlink:href="#J" class="r"/><g class="s"><use xlink:href="#J" class="t"/><path d="M535.17 112.42l55.32 31.85a1.48 1.48 0 0 1 .69 1.15c0 .41-.31.57-.69.35l-55.32-31.85a1.48 1.48 0 0 1-.7-1.15c0-.42.31-.57.7-.35zm47.09 21.07l8.23 4.76a1.49 1.49 0 0 1 .69 1.15c0 .42-.31.57-.69.35l-8.23-4.76a1.49 1.49 0 0 1-.69-1.15c0-.42.31-.58.69-.35zm-58.01-33.4l55.32 31.85a1.51 1.51 0 0 1 .69 1.16c0 .41-.31.57-.69.35l-55.32-31.86a1.5 1.5 0 0 1-.69-1.16c0-.41.31-.57.69-.34z"/></g><use xlink:href="#K" class="r"/><use xlink:href="#K" class="s t"/><use xlink:href="#L" class="r"/><use xlink:href="#L" class="s t"/><path d="M516.45 107.73l74 42.69a1.49 1.49 0 0 1 .69 1.15c0 .42-.31.58-.69.36l-74-42.7a1.48 1.48 0 0 1-.72-1.14c0-.43.33-.58.72-.36z" class="y"/><use xlink:href="#M" class="r"/><use xlink:href="#M" class="s t"/><path d="M516.45 113.73l74 42.7a1.49 1.49 0 0 1 .69 1.15c0 .42-.31.57-.69.35l-74-42.7a1.46 1.46 0 0 1-.72-1.14c0-.42.33-.58.72-.36z" class="y"/><use xlink:href="#N" class="r"/><use xlink:href="#N" class="s t"/><path d="M516.45 119.74l74 42.7a1.48 1.48 0 0 1 .69 1.15c0 .41-.31.57-.69.35l-74-42.7a1.48 1.48 0 0 1-.72-1.15c0-.42.33-.57.72-.35z" class="y"/><use xlink:href="#O" class="r"/><use xlink:href="#O" class="s t"/><g class="s t"><path d="M496.04 47.5l3.77 2.18a1.51 1.51 0 0 1 .68 1.19v1.39c0 .43-.3.61-.68.39l-3.77-2.18a1.5 1.5 0 0 1-.69-1.18V47.9c0-.44.31-.61.69-.4z"/><use xlink:href="#P"/><path d="M496.04 59.63l3.77 2.18a1.51 1.51 0 0 1 .68 1.19v1.39c0 .43-.3.61-.68.39l-3.77-2.18a1.52 1.52 0 0 1-.69-1.18v-1.39c0-.44.31-.61.69-.4z"/><use xlink:href="#P" y="12.13"/><use xlink:href="#Q"/><path d="M496.04 77.83l3.77 2.18a1.49 1.49 0 0 1 .68 1.18v1.39c0 .44-.3.61-.68.4l-3.77-2.18a1.52 1.52 0 0 1-.69-1.19v-1.39c0-.43.31-.61.69-.39z"/><use xlink:href="#Q" y="12.13"/><path d="M496.04 89.96l3.77 2.18a1.49 1.49 0 0 1 .68 1.18v1.39c0 .44-.3.61-.68.39l-3.77-2.17a1.52 1.52 0 0 1-.69-1.19v-1.39c0-.43.31-.61.69-.39zm0 6.06l3.77 2.18a1.51 1.51 0 0 1 .68 1.19v1.38c0 .44-.3.62-.68.4l-3.77-2.18a1.52 1.52 0 0 1-.69-1.19v-1.38c0-.44.31-.62.69-.4zm0 6.07l3.77 2.18a1.48 1.48 0 0 1 .68 1.18v1.39c0 .44-.3.61-.68.39l-3.77-2.14a1.52 1.52 0 0 1-.69-1.19v-1.39c0-.42.31-.64.69-.42zm0 6.06l3.77 2.18a1.51 1.51 0 0 1 .68 1.19v1.38c0 .44-.3.62-.68.4l-3.77-2.21a1.52 1.52 0 0 1-.69-1.19v-1.38c0-.43.31-.59.69-.37zm0 6.07l3.77 2.17a1.51 1.51 0 0 1 .68 1.19v1.39c0 .44-.3.61-.68.39l-3.77-2.17a1.52 1.52 0 0 1-.69-1.19v-1.39c0-.43.31-.61.69-.39z"/></g><path d="M471.01 27.8l20.4 11.78a3 3 0 0 1 1.37 2.37v23.56c0 .87-.61 1.23-1.37.79l-20.4-11.78a3 3 0 0 1-1.37-2.37V28.6c0-.88.61-1.23 1.37-.8z" class="v"/><use xlink:href="#R" class="r"/><use xlink:href="#R" class="s t"/><use xlink:href="#S" class="r"/><use xlink:href="#S" class="s t"/><use xlink:href="#T" class="r"/><use xlink:href="#T" class="s t"/><use xlink:href="#U" class="r"/><use xlink:href="#U" class="s t"/><use xlink:href="#V" class="r"/><use xlink:href="#V" class="s t"/><use xlink:href="#W" class="r"/><use xlink:href="#W" class="s t"/><use xlink:href="#X" class="r"/><use xlink:href="#X" class="s u"/><use xlink:href="#Y" class="r"/><use xlink:href="#Y" class="s u"/><use xlink:href="#Z" class="r"/><use xlink:href="#Z" class="s u"/><use xlink:href="#a" class="r"/><use xlink:href="#a" class="s u"/><use xlink:href="#b" class="r"/><use xlink:href="#b" class="s u"/><use xlink:href="#c" class="r"/><use xlink:href="#c" class="s u"/><path d="M471.01 58.96l20.4 11.77a3 3 0 0 1 1.37 2.36v46.54c0 .88-.61 1.23-1.37.79l-20.4-11.78a3 3 0 0 1-1.37-2.37V59.75c0-.88.61-1.23 1.37-.79z" class="v"/><use xlink:href="#d" class="r"/><use xlink:href="#d" class="s t"/><use xlink:href="#e" class="r"/><use xlink:href="#e" class="s t"/><use xlink:href="#f" class="r"/><use xlink:href="#f" class="s t"/><use xlink:href="#g" class="r"/><use xlink:href="#g" class="s t"/><use xlink:href="#h" class="r"/><use xlink:href="#h" class="s u"/><use xlink:href="#i" class="r"/><use xlink:href="#i" class="s u"/><use xlink:href="#j" class="r"/><use xlink:href="#j" class="s u"/><use xlink:href="#k" class="r"/><use xlink:href="#k" class="s u"/><use xlink:href="#l" class="r"/><use xlink:href="#l" class="s t"/><use xlink:href="#m" class="r"/><use xlink:href="#m" class="s t"/><use xlink:href="#n" class="r"/><use xlink:href="#n" class="s u"/><use xlink:href="#o" class="r"/><use xlink:href="#o" class="s u"/><use xlink:href="#p" class="r"/><use xlink:href="#p" class="s t"/><use xlink:href="#q" class="r"/><use xlink:href="#q" class="s u"/><use xlink:href="#r" class="r"/><use xlink:href="#r" class="s t"/><use xlink:href="#s" class="r"/><use xlink:href="#s" class="s t"/><use xlink:href="#t" class="r"/><use xlink:href="#t" class="s u"/><use xlink:href="#u" class="r"/><use xlink:href="#u" class="s u"/><use xlink:href="#W" y="38.85" class="r"/><use xlink:href="#W" y="38.85" class="s t"/><use xlink:href="#p" y="-3.91" class="r"/><use xlink:href="#p" y="-3.91" class="s t"/><use xlink:href="#c" y="38.86" class="r"/><use xlink:href="#c" y="38.86" class="s u"/><use xlink:href="#v" class="r"/><use xlink:href="#v" class="s u"/><use xlink:href="#w" class="r"/><use xlink:href="#w" class="s t"/><use xlink:href="#x" class="r"/><use xlink:href="#x" class="s u"/><g class="u w"><path d="M584.51 124.38v76.38a3.51 3.51 0 0 0 1.59 2.75l43.88 25.32a1.1 1.1 0 0 0 .53.15h.2.13.09l.09-.06.09-.08a1.22 1.22 0 0 0 .29-.42 1.88 1.88 0 0 0 .17-.8v-76a3.5 3.5 0 0 0-1.59-2.75l-43.88-25.29a1.16 1.16 0 0 0-1.07-.14l-.13.08h0l-.11.1a.21.21 0 0 0 0 .06.26.26 0 0 0 0 .09.54.54 0 0 0-.1.2.58.58 0 0 0 0 .14h0v.15c0 .06-.18.06-.18.12z"/></g><g class="r"><path d="M585.03 123.33a1.16 1.16 0 0 1 1.07.14l43.88 25.29a3.5 3.5 0 0 1 1.59 2.75v5.18l2.53-1.46v-5.14a3.48 3.48 0 0 0-1.59-2.74l-43.88-25.26a1.11 1.11 0 0 0-1.15-.1c-.29.1-2.11 1.17-2.45 1.34z"/><path d="M584.52 124.37c0-1 .71-1.4 1.58-.9l43.88 25.29a3.51 3.51 0 0 1 1.59 2.75v5.18l-47.05-27.11z"/></g><g class="AC s"><path d="M586.1 123.47l43.88 25.29a3.27 3.27 0 0 1 1.12 1.18l2.52-1.45a3.23 3.23 0 0 0-1.11-1.15l-43.88-25.25a1.11 1.11 0 0 0-1.15-.1c-.28.18-2.11 1.2-2.44 1.38a1.11 1.11 0 0 1 1.06.1z"/></g><path d="M634.1 155.24v-5.15a3.36 3.36 0 0 0-.48-1.59l-2.53 1.44a3.16 3.16 0 0 1 .48 1.58v5.18z" class="AE"/><path d="M629.26 150.89a2.37 2.37 0 0 1 .9 1.9c0 .76-.4 1.15-.9.86a2.36 2.36 0 0 1-.9-1.89c0-.77.37-1.15.9-.87zm-3.23-1.86a2.33 2.33 0 0 1 .9 1.89c0 .77-.4 1.15-.9.87a2.39 2.39 0 0 1-.89-1.9c0-.8.4-1.15.89-.86zm-3.22-1.87a2.39 2.39 0 0 1 .92 1.93c0 .76-.4 1.15-.89.86a2.35 2.35 0 0 1-.9-1.9c-.03-.79.37-1.17.87-.89z" class="w"/><g opacity=".9" class="v"><path d="M630.99 228.83l.19-.11.49-.28h0a1.74 1.74 0 0 1 .26-.15h0l.42-.24.85-.48.2-.11a.9.9 0 0 0 .27-.21 1.1 1.1 0 0 0 .21-.33 1.89 1.89 0 0 0 .19-.84v-70.85l-2.53 1.46v70.81a2.31 2.31 0 0 1-.17.8 1.22 1.22 0 0 1-.29.42.24.24 0 0 1-.09.08z"/></g><path d="M588.16 138.34a.25.25 0 0 1 .08-.2l1.14-1h.05 0a.17.17 0 0 1 .09.11.29.29 0 0 1 0 .16v.79a1.09 1.09 0 0 1 0 .22.83.83 0 0 1-.08.12l-.61.55.61 1.25c0 .08.06.15.08.22a1.44 1.44 0 0 1 0 .24v.79.12a.07.07 0 0 1-.09 0h0l-.05-.07-1.14-2.37a.67.67 0 0 1-.08-.29zm4.17-1.1a.3.3 0 0 1 .09-.13h.17l.42.25a.17.17 0 0 1 .09.11.29.29 0 0 1 0 .16.2.2 0 0 1 0 .07l-2 6.08a.26.26 0 0 1-.08.13h-.17l-.41-.24a.2.2 0 0 1-.09-.11.32.32 0 0 1 0-.16v-.07zm3.03 5.85a.26.26 0 0 1-.08.21l-1.14 1a.07.07 0 0 1-.06 0h0a.2.2 0 0 1-.09-.11.32.32 0 0 1 0-.16v-.79a1 1 0 0 1 0-.22.35.35 0 0 1 .08-.13l.6-.55-.6-1.24a2.11 2.11 0 0 1-.08-.22 1.44 1.44 0 0 1 0-.24v-.8a.12.12 0 0 1 0-.11h.09 0a.22.22 0 0 1 .06.07l1.14 2.36a.67.67 0 0 1 .08.3zm3.17 3.11a.29.29 0 0 1 .11.13.48.48 0 0 1 0 .2v.87a.18.18 0 0 1 0 .14.08.08 0 0 1-.11 0l-.54-.31a.29.29 0 0 1-.11-.13.49.49 0 0 1 0-.2v-.81a.21.21 0 0 1 0-.15.08.08 0 0 1 .11 0zm1.8 1.04a.29.29 0 0 1 .11.13.48.48 0 0 1 0 .2v.87a.18.18 0 0 1 0 .14.09.09 0 0 1-.11 0l-.54-.31a.36.36 0 0 1-.11-.13.53.53 0 0 1-.05-.2v-.85a.21.21 0 0 1 .05-.15.08.08 0 0 1 .11 0zm1.8 1.04a.25.25 0 0 1 .11.13.48.48 0 0 1 0 .2v.87a.2.2 0 0 1 0 .14.09.09 0 0 1-.11 0l-.54-.31a.33.33 0 0 1-.11-.14.45.45 0 0 1 0-.19v-.89a.2.2 0 0 1 0-.14.09.09 0 0 1 .11 0zm-13.49-3.02L615 160.48a1.2 1.2 0 0 1 .57.94c0 .34-.25.46-.57.28l-26.36-15.22a1.21 1.21 0 0 1-.56-.93c0-.34.25-.46.56-.29z" class="r"/><path d="M597.1 164.8l26.36 15.22a1.19 1.19 0 0 1 .57.93c0 .34-.25.47-.57.29l-26.36-15.22a1.21 1.21 0 0 1-.56-.94c0-.34.25-.46.56-.28zm0 9.76l12.63 7.29a1.21 1.21 0 0 1 .56.94c0 .34-.25.46-.56.28l-12.62-7.29a1.19 1.19 0 0 1-.56-.93c-.01-.34.24-.47.55-.29z" class="y"/><g class="r"><path d="M617.19 161.74l10.5 6a1.19 1.19 0 0 1 .57.93c0 .34-.26.47-.57.29l-10.5-6a1.19 1.19 0 0 1-.56-.93c0-.34.25-.47.56-.29zm-28.55 37.24L615 214.2a1.19 1.19 0 0 1 .57.93c0 .34-.25.47-.57.29l-26.36-15.22a1.21 1.21 0 0 1-.56-.94c0-.34.25-.46.56-.28zm28.55 16.48l10.5 6a1.22 1.22 0 0 1 .57.94c0 .33-.26.46-.57.28l-10.5-6a1.21 1.21 0 0 1-.56-.94c0-.33.25-.46.56-.28zm0-14.63l10.5 6a1.2 1.2 0 0 1 .57.93c0 .34-.26.47-.57.29l-10.5-6a1.21 1.21 0 0 1-.56-.94c0-.33.25-.46.56-.28zm0 4.89l10.5 6a1.22 1.22 0 0 1 .57.93c0 .34-.26.47-.57.29l-10.5-6a1.21 1.21 0 0 1-.56-.94c0-.34.25-.46.56-.28zm-8.96-10.07l5.9 3.41a1.18 1.18 0 0 1 .57.93c0 .34-.25.47-.57.29l-5.9-3.41a1.21 1.21 0 0 1-.56-.94c0-.33.25-.46.56-.28z"/><use xlink:href="#y"/></g><use xlink:href="#y" class="s t"/><use xlink:href="#z" class="r"/><use xlink:href="#z" class="s t"/><use xlink:href="#AA" class="r"/><use xlink:href="#AA" class="s t"/><path d="M588.64 164.8l5.22 3a1.19 1.19 0 0 1 .56.93c0 .34-.25.47-.56.29l-5.22-3a1.21 1.21 0 0 1-.56-.94c0-.34.25-.46.56-.28z" class="r"/><path d="M588.64 164.8l5.22 3a1.21 1.21 0 0 1 .56.94c0 .34-.25.46-.56.28l-5.22-3a1.21 1.21 0 0 1-.56-.94c0-.34.25-.46.56-.28z" class="s t"/><g class="r"><use xlink:href="#AB" class="t"/><use xlink:href="#AC" class="t"/></g><g class="s"><use xlink:href="#AB" class="t"/><use xlink:href="#AC" class="t"/></g><use xlink:href="#z" y="14.65" class="r"/><use xlink:href="#z" y="14.65" class="s t"/><use xlink:href="#AD" class="r"/><g class="s"><use xlink:href="#AD" class="t"/><path d="M603.44 183.09l15.38 8.87a1.22 1.22 0 0 1 .57.94c0 .34-.26.46-.57.29l-15.38-8.88a1.21 1.21 0 0 1-.56-.93c0-.29.25-.46.56-.29zm8.88 10l15.41 8.91a1.22 1.22 0 0 1 .57.94c0 .33-.26.46-.57.28l-15.37-8.87a1.2 1.2 0 0 1-.57-.94c-.06-.32.21-.46.53-.32zm8.69.15l6.72 3.85a1.22 1.22 0 0 1 .57.93c0 .34-.26.47-.57.29l-6.68-3.87a1.2 1.2 0 0 1-.57-.94c-.04-.32.25-.41.53-.26z"/></g><path d="M621.01 212.58l6.68 3.87a1.22 1.22 0 0 1 .57.94c0 .33-.26.46-.57.28l-6.68-3.87a1.2 1.2 0 0 1-.57-.94c0-.33.29-.46.57-.28z" class="y"/><use xlink:href="#AE" class="r"/><use xlink:href="#AE" class="s t"/><use xlink:href="#AF" class="r"/><use xlink:href="#AF" class="s t"/><path d="M509.85 226l9.42 5.44a10.38 10.38 0 0 0 10.4-.55l15.55-11.35c2.77-2 2.61-5-.36-6.77l-4.72-2.74a12.83 12.83 0 0 0-10.93-.33l-19.19 10.39c-3.07 1.55-3.15 4.19-.17 5.91z" class="AE"/><path d="M545.47 214.6l-10.74 8.41-7.94 6.21a7 7 0 0 1-2.53.61 6.88 6.88 0 0 1-3.77-.79l-8.43-4.87h0 0a6 6 0 0 1-1.71-8.53l.25-.35a11.24 11.24 0 0 1 6.79-4.3l4.27-.85c6.92-1.41 12.59-2.09 13.25-1.64l10.57 6.12a.08.08 0 0 1-.01-.02z" class="v"/><path d="M539.46 219.31l.61-.48-9.49-5.47 8.3-2.57-.84-.49-8.3 2.57-5.66-3.26-1.07.2z" class="r"/><path d="M527.73 228.71h0 0l7.56-5.46 10.19-7.36v-1.2a.1.1 0 0 0 0-.09.08.08 0 0 0-.06 0c-.76-.26-5.18 1.07-10.52 3.19l-3.54 1.41a11.21 11.21 0 0 0-7.1 10.47v.18a7 7 0 0 0 2.53-.61z" class="x"/><use xlink:href="#AG" class="r"/><g class="AC s"><use xlink:href="#AG"/></g><use xlink:href="#AH" class="r"/><g opacity=".7" class="s"><use xlink:href="#AH"/></g><use xlink:href="#AI" class="r"/><g opacity=".3"><use xlink:href="#AI"/></g><path d="M550.2 325.36c8.63-5 22.63-5 31.26 0a14.36 14.36 0 0 1 5.16 4.79 14.38 14.38 0 0 1-5.16 4.8c-8.63 5-22.63 5-31.26 0a14.5 14.5 0 0 1-5.17-4.8 14.48 14.48 0 0 1 5.17-4.79z" class="AF"/><use xlink:href="#AJ" class="r"/><g opacity=".25"><use xlink:href="#AJ"/></g><g class="s"><path d="M571.91 331.09a.53.53 0 0 0 .37-.53c-.32-37.42 20.31-59.76 20.52-60a.58.58 0 0 0 0-.8.56.56 0 0 0-.79 0c-.21.22-21.14 22.87-20.82 60.76a.55.55 0 0 0 .56.56z"/><path d="M577.91 296.26l.12-.05c6.71-4.23 18.68-7.38 18.8-7.41a.57.57 0 0 0 .4-.69.55.55 0 0 0-.68-.4c-.5.13-12.26 3.22-19.11 7.54a.55.55 0 0 0-.18.77.55.55 0 0 0 .65.24zm2.08-5.17h0a.57.57 0 0 0 .31-.74 43.53 43.53 0 0 0-6.19-10.41.55.55 0 0 0-.79-.06.57.57 0 0 0-.06.79 42.89 42.89 0 0 1 6 10.11.55.55 0 0 0 .73.31z"/></g><use xlink:href="#AK" class="r"/><use xlink:href="#AK" opacity=".1"/><path d="M567.9 334.28a.52.52 0 0 1-.34-.46c-1.43-17.86-21.41-45.75-30.24-51.35a.56.56 0 0 1-.17-.75.55.55 0 0 1 .74-.17c9 5.69 29.29 34 30.73 52.18a.53.53 0 0 1-.49.58.45.45 0 0 1-.23-.03z" class="s"/><path d="M387.22 323.09c0-.2-3.21-11.8-3.21-11.8s1.05 1.07 7.75-.7a38 38 0 0 0 7.29-3.06l1.91 8.48c1.79 3.26 7.71 1.76 14.19 1 1.09-.13 2.21-.31 3.33-.5h.07c3.5-.19 7 1.91 3.38 4.9s-9.65 4.11-15.18 5.11c-6.66 1.25-18.34 3.2-19.53-3.43z" class="AD"/><path d="M433.73 322.09a6.79 6.79 0 0 1 .48 3.56c-.12 1.29-3.32 5.67-9 8.36s-12.62 2.86-15.88 3.8-6.26 2.81-10.11 3.75-7.66 1.44-11.52-1.11c-.71-1.09-1.49-3.62-1.27-3.87.7-.66 47.3-14.49 47.3-14.49z" class="x"/><use xlink:href="#AL" class="r"/><use xlink:href="#AL" opacity=".4"/><path d="M418.58 324.09s-.56-5.44-4.58-6.88a2.11 2.11 0 0 0-2.22.29s3.73.54 5 6.93c0 0 .19.42 1 .27.24-.06.84-.17.8-.61zm-10.23-6.18s0-.18.94-.35a1.68 1.68 0 0 1 1.11.12s3 1.3 3.56 7c0 0 0 .68-.93.87a.82.82 0 0 1-1.07-.56s-.62-5.99-3.61-7.08zm-3.22.12s.17-.34.87-.34c.89 0 1.1.35 1.1.35s2.14 2.19 2.16 6.95c0 0 .09.8-1 .88s-1-.82-1-.82-.38-6.06-2.13-7.02z" fill="#fafafa"/><path d="M383.08 244.29c4.9 14.73 17.9 65.45 17.9 65.45s-8.46 7.6-17.64 4.14l-21.87-63.16z" class="v"/><path d="M420.87 339.49c-1-1.49-4.76-11.8-4.76-11.8s3.92 2.24 10.67.64c3.43-.82 6.64-4.54 6.64-4.54l2.88 9.91c1.7 3.31 7.21 2.22 13.71 1.64 1.09-.1 2.21-.26 3.34-.42h.07c3.5-.1 7 2.08 3.25 5s-9.74 3.88-15.3 4.74c-6.64 1.01-16.75.43-20.5-5.17z" class="AD"/><path d="M471.29 339.18a7.31 7.31 0 0 1 .43 3.84c-.17 1.38-3.72 6-9.84 8.73s-13.63 2.74-17.16 3.66-6.79 2.86-10.95 3.77-8.26 1.33-12.33-1.49c-.74-1.2-1.52-3.94-1.26-4.2.67-.69 51.11-14.31 51.11-14.31z" class="x"/><use xlink:href="#AM" class="r"/><use xlink:href="#AM" opacity=".4"/><path d="M454.93 340.92s-.46-5.86-4.74-7.51a2.28 2.28 0 0 0-2.39.25s4 .68 5.14 7.57c0 0 .2.46 1.08.32.29-.04.94-.14.91-.63zm-10.82-6.89s0-.2 1-.36a1.78 1.78 0 0 1 1.18.16s3.19 1.47 3.64 7.6c0 0 0 .73-1 .91a.89.89 0 0 1-1.14-.63s-.49-6.44-3.68-7.68zm-3.46.06s.19-.36.95-.34c.95 0 1.16.4 1.16.4s2.24 2.41 2.14 7.51c0 0 .08.87-1.13.93s-1-.91-1-.91-.26-6.54-2.12-7.59z" fill="#fafafa"/><g class="w"><path d="M417.57 261.68c3.86 11.87 13.72 45.66 18.22 63 0 0-8.09 7.28-18.5 6.64l-25.09-65.06 10-6.18zm-82.61 162.41a1.63 1.63 0 0 0 1.63-1.63V317.9a1.63 1.63 0 1 0-3.26 0v104.59a1.63 1.63 0 0 0 1.63 1.6zm-64.71-38a1.62 1.62 0 0 0 1.51-1l32.07-81.18a1.62 1.62 0 1 0-3-1.19l-32.1 81.1a1.63 1.63 0 0 0 .91 2.11 1.61 1.61 0 0 0 .61.16z"/><path d="M274.1 376.3a1.61 1.61 0 0 0 1.18-.51l59.68-63.15 59.57 62.88a1.63 1.63 0 0 0 2.36-2.24l-60.75-64.13a1.64 1.64 0 0 0-1.18-.51h0a1.63 1.63 0 0 0-1.18.51l-60.86 64.4a1.63 1.63 0 0 0 1.18 2.75z"/><path d="M399.67 386.09a1.61 1.61 0 0 0 .6-.12 1.63 1.63 0 0 0 .91-2.11l-32.07-81.17a1.63 1.63 0 0 0-3 1.19l32.08 81.18a1.62 1.62 0 0 0 1.48 1.03z"/></g><use xlink:href="#AN" class="r"/><g opacity=".4"><use xlink:href="#AN"/></g><path d="M343.08 312.52c9.66 8.75 19.76 1.22 35.74-9.15 18.09-11.73 21.63-21.34 21.63-21.34s0 7.2-1.35 10.57-4.27 7.2-17.31 16.19-22.49 13.49-31.26 15.16l-6.92-.95" class="r"/><path d="M378.82 303.37c18.09-11.73 21.63-21.34 21.63-21.34s0 7.2-1.35 10.57-4.27 7.2-17.31 16.19-22.49 13.49-31.26 15.16l-6.92-.95-.53-10.48c9.65 8.75 19.76 1.22 35.74-9.15z" class="AC"/><path d="M272.73 373.31l-5 11.42a1.59 1.59 0 0 0-.06.3 1.34 1.34 0 0 0 0 .21 1.41 1.41 0 0 0 .63.76 3 3 0 0 0 2.68.13 1.18 1.18 0 0 0 .55-.53h0v-.15l4.6-10.71zm124.73.48l4.27 11.19a1.35 1.35 0 0 1 0 .29v.2a1.31 1.31 0 0 1-.64.7 2.8 2.8 0 0 1-2.58 0 1.15 1.15 0 0 1-.51-.52h0v-.16L394.07 375zm-64.38 40.6v9.26a1 1 0 0 0 .55.76 2.9 2.9 0 0 0 2.66 0 .93.93 0 0 0 .54-.76v-9.26a4 4 0 0 0-3.75 0z" class="r"/><path d="M296.27 242.81c3.83 4.47 38.72-5.57 48-6.83 14.9-2 27-3.51 32.1-1.92s7.21 4.17 8.76 10.23l2.77 10.79s-24.76 9.5-44.3 11.79-47.33-24.06-47.33-24.06z" class="v"/><path d="M289.73 249.36c-3.87 14.74-7.34 31.88 1.61 41.26 6 6.32 36.31 22.74 55.85 16.27 19.24-6.37 59.1-36 63.1-38.93s7.63-5 7.25-6.28c-5.37-17.84-13.23-19.24-27.79-16-17.82 3.92-56.92 19.87-56.92 19.87z" class="w"/><path d="M378.25 154.61l-13.44 15.2-21.7-10.3 15.17-21 19.97 16.1z" class="AD"/><path d="M394.92 125.75s5.5 7.94 4.91 8.75-4.48 1.61-4.48 1.61z" fill="#f28f8f"/><circle cx="394.88" cy="124.42" r="5.98" fill="none" stroke="#263238" stroke-width="1.21"/><path d="M379.65 103.77c10.81 2 14 6.68 15.43 23.75 1.46 17.83-.23 23.49-2.52 25.94-1.55 1.66-10.34 2.16-14.81 1-5.59-1.41-18.25-5.57-24.33-14.42-7.16-10.41-9.31-24.69-2-30.73 10.2-8.47 23.83-6.36 28.23-5.54z" class="AD"/><path d="M378.25 154.61c4.65 1 11.73.41 13.83-.79a16 16 0 0 1-7.83-.29 25.61 25.61 0 0 1-7.17-3.16z" fill="#f28f8f"/><g class="x"><path d="M397.08 110.76h0c-3 2.08-6.7 2.94-10.32 3.51.28 2.89-.63 5.75-1.53 8.52-.62 1.91-2.87 7.92-5.32 4.62-1.77-2.38-3.37-4.55-6.76-4-5.58 1-6.17 8.11-2.54 12.37s6.88 2.52 6.88 2.52.51 7.69-3.55 13.13c0 0-6.05 3.72-14.55.92-5.36-1.77-13.1-8.53-15.95-13.81-7.85-14.52-7.89-28.44 1.63-32.72.88-7 6.27-10.2 12.46-11.77 8.59-2.18 17.51 3.21 25.81-.35 1.75-.75 3.36-1.81 5.15-2.46a3.56 3.56 0 0 1 3.09 0 3.76 3.76 0 0 1 1.32 2.36 6.62 6.62 0 0 1-.33 5 15 15 0 0 1 3.91-1.44 4.9 4.9 0 0 1 3.94.89 5.07 5.07 0 0 1 1.58 3.44c.31 3.67-1.92 7.18-4.92 9.27z"/><path d="M344.92 108.21l-6.52-3.65a3.74 3.74 0 0 1 6.586-.188 3.74 3.74 0 0 1-.066 3.838z"/></g><path d="M379.88 127.44l20.91-3.91" fill="none" stroke="#263238" stroke-miterlimit="10" stroke-width="1.03"/><path d="M423.59 163.49c-.56-.94-1.81-1.13-2.85-1.49-1.92-.67-3.42-2.2-5.27-3a10.4 10.4 0 0 0-6.66-.45 16.88 16.88 0 0 0-2.22.71 27.94 27.94 0 0 0-4 2c-5.3 3.13-9.28 10.22-14.49 13.47l-5.54 3.41 12.47 11.05a74.46 74.46 0 0 1 6.14-4.67c3.06-1.82 6.15-1.86 9.59-2.36a47.58 47.58 0 0 0 7-1.75 3.09 3.09 0 0 0 2.07-1.35 2.08 2.08 0 0 0-1.34-2.56 18 18 0 0 0-3.63-.5c-.9-.14-3.3.39-3.83-.51-.28-.48.07-1.06.41-1.49 2.16-2.69 4.89-5.57 8.34-6.38a7.24 7.24 0 0 0 3-1.21 2.39 2.39 0 0 0 .81-2.92z" class="AD"/><g class="r"><path d="M349.2 151.09c-13.21-7.21-25.24-2.58-29.57 6.69-3.93 8.39-12.17 40.85-12.17 40.85 3.96 7.46 41.74-47.54 41.74-47.54z"/><path d="M347.22 153.69l2-2.61c-14.92-7.08-28.27 2.22-40 20.52-12.68 19.72-19.33 48-19.39 77.91 0 0 2.53 13.43 19.49 20.14 18 7.13 43.11 4.11 50.94-14.55 0 0 .16-18.63 5.82-27.81 3.67-5.94 12.22-19.13 18.58-28.6 5.54-8.24 9.85-27-1.72-33.85a98.25 98.25 0 0 0-9.41-4.8c-10.58 3.48-27.67-2.17-26.31-6.35z"/></g><path d="M347.26 153.76l1.94-2.68c-14.92-7.08-28.27 2.22-40 20.52-12.68 19.72-19.33 48-19.39 77.91 0 0 2.53 13.43 19.49 20.14 18 7.13 43.11 4.11 50.94-14.55 0 0 .16-18.63 5.82-27.81 3.67-5.94 12.22-19.13 18.58-28.6 5.54-8.24 9.85-27-1.72-33.85a98.25 98.25 0 0 0-9.41-4.8c-10.56 3.48-27.61-2.1-26.25-6.28z" opacity=".75" class="s"/><path d="M389.43 186.74a30.2 30.2 0 0 0 .46-10.86h0a58 58 0 0 1-11.26 17.21c-6.07 6.39-13.56 11.37-19.19 18.15-6 7.18-10.25 15.87-15.25 23.71-2 3.15-4.74 9.22-8.46 9.47-4.54.29-8.88-5.24-11.35-9.06-3.95-6.08-7.34-13.69-12.25-19-4.29-4.67-10.93-10.65-16.77-7.94h0c-.44 1.55-.85 3.12-1.24 4.7s-.75 3.22-1.09 4.83v.19l-.93 4.88a2 2 0 0 1 0 .26q-.42 2.43-.75 4.86a157.64 157.64 0 0 0-1.49 21.41c0 0 2.53 13.43 19.49 20.14 18 7.13 43.11 4.11 50.94-14.55 0 0 .16-18.63 5.82-27.81l2.05-3.27h0l.13-.21 2.11-3.31c0-.07.09-.14.14-.21a.41.41 0 0 1 .05-.09l5.32-8.22.85-1.31 5.43-8.24h0l1.75-2.61.72-1.09h0c.2-.29.4-.61.59-.93l.18-.3.42-.74.18-.34.45-.88a2.4 2.4 0 0 1 .11-.23c.19-.39.37-.79.55-1.2v-.05-.07l.47-1.14c0-.1.07-.19.1-.28l.41-1.11v-.09-.13a35.21 35.21 0 0 0 .66-2.13h0a41.85 41.85 0 0 0 .54-2.21v-.09z" opacity=".1" class="r"/><path d="M458.62 204.89a27.57 27.57 0 0 1-3.1 3.2c-4.56 4.13-9.89 6.12-16.09 10.14-5 3.25-12.73 8-19.24 12.05a97.27 97.27 0 0 1-20.95 9.68c-6.05 1.78-9.43 1.85-13-7.83-1.75-4.75-3.14-9.63-4.66-14.46q-3.37-10.79-6.64-21.61s-8-19.83 9.95-29.79c7.83 4.48 10.81 6.29 13.27 15.67 2.94 11.23 7.7 33.39 7.7 33.39a156.74 156.74 0 0 0 18.59-7.92c2.28-1.13 5.09-1.92 6.72-3.95a30.18 30.18 0 0 0 2.86-4.46c.77-1.38 1.32-2.88 2.17-4.2a37.21 37.21 0 0 1 5.91-6.51 2.43 2.43 0 0 1 1.43-.85 1.66 1.66 0 0 1 1.45.88c.66 1.16.05 2.29-.29 3.47l-1.16 4a35.25 35.25 0 0 0 11.47-10.7 5.87 5.87 0 0 1 .9-1.14 1.74 1.74 0 0 1 1.34-.49c1.2.15 2.39 2.09 2.45 3.2a18.23 18.23 0 0 0 .09 3.39c.27 1 1 1.9 1.31 2.92a17 17 0 0 1 .68 3.24 11.1 11.1 0 0 1-1.82 6.79 16 16 0 0 1-1.34 1.89z" class="AD"/><path d="M383.81 165.44c6.85 2.77 11.79 5.9 14.91 16.36s6.52 27.29 6.52 27.29.06 3.51-8.26 8.42a20.48 20.48 0 0 1-16.11 2.17l-6.28-20.2s-11.14-27.06 9.22-34.04zM343.61 323c-5.5-.28-9.81-4.32-22.89-9.77-24.16-10.07-42.28-18.12-49.19-30.78s-11.79-49.18-10.06-65a20.35 20.35 0 0 1 1.18-5.24l-1.7-.25 4.4-3.75h0c4.52-3.68 11.86-.4 17.4 2.62 15.82 8.6 28.19 17 38 47.17 7.35 22.71 12.2 43.43 22.36 54.51" class="r"/><path d="M262.65 212.21l-1.7-.25 4.4-3.75h0c4.52-3.68 11.86-.4 17.4 2.62 15.82 8.6 28.19 17 38 47.17 7.35 22.71 12.2 43.43 22.36 54.51l.53 10.48c-5.5-.28-9.81-4.32-22.89-9.77-24.16-10.07-42.28-18.12-49.19-30.78s-11.79-49.18-10.06-65a20.78 20.78 0 0 1 1.15-5.23z" opacity=".3"/><path d="M278.17 214.73c15.81 8.6 28.18 17 38 47.17s15.13 56.88 34.4 62.05c0 0-8.71 3.47-35.41-7.83-8.5-3.59-18.81-10.14-25.58-13.94-13.27-7.45-21.32-13.55-22.59-15.84-7-12.59-11.79-49.18-10.07-65s13.32-10.93 21.25-6.61z" class="r"/><path d="M216.23 18.32l-53.89 31.05a2.94 2.94 0 0 0-1.34 2.31v30.08a2.89 2.89 0 0 0 1.34 2.3l5.32 3a3 3 0 0 0 2.68 0l53.89-31a2.94 2.94 0 0 0 1.34-2.31V23.64a2.92 2.92 0 0 0-1.34-2.31l-5.32-3a3 3 0 0 0-2.68-.01z" class="x"/><path d="M225.55 23.39c-.1-.67-.65-.91-1.32-.53l-53.88 31a2.7 2.7 0 0 0-1 1l-8-4.59a2.66 2.66 0 0 1 .92-1l53.89-31a3 3 0 0 1 2.68 0l5.32 3a2.94 2.94 0 0 1 1.39 2.12z" class="w"/><path d="M224.23 22.86l-53.89 31a3 3 0 0 0-1.33 2.31v30.08c0 .86.6 1.2 1.33.78l53.89-31a2.94 2.94 0 0 0 1.34-2.31V23.64c0-.86-.6-1.2-1.34-.78z" class="v"/><text transform="matrix(.94 -.5 0 1 176.39 74.17)" font-size="23.33" class="z AA AB"><tspan class="k">CS</tspan><tspan x="30.5" y="0">S</tspan></text><path d="M55.23 182.32L1.34 213.37A2.94 2.94 0 0 0 0 215.68v30.08a2.89 2.89 0 0 0 1.34 2.3l5.32 3a3 3 0 0 0 2.68 0l53.89-31.03a2.94 2.94 0 0 0 1.34-2.31v-30.08a2.92 2.92 0 0 0-1.34-2.31l-5.32-3a3 3 0 0 0-2.68-.01z" class="x"/><use xlink:href="#AO" class="w"/><path d="M63.23 186.86l-53.89 31a3 3 0 0 0-1.33 2.31v30.08c0 .86.6 1.2 1.33.78l53.89-31a2.94 2.94 0 0 0 1.34-2.31v-30.08c0-.86-.6-1.2-1.34-.78z" class="v"/><text transform="matrix(.94 -.5 0 1 25.24 233.96)" font-size="23.33" class="z AA AB">JS</text><path d="M67.23 11.32L13.34 42.37A2.94 2.94 0 0 0 12 44.68v30.08a2.89 2.89 0 0 0 1.34 2.3l5.32 3a3 3 0 0 0 2.68 0l53.89-31a2.94 2.94 0 0 0 1.34-2.31V16.64a2.92 2.92 0 0 0-1.34-2.31l-5.32-3a3 3 0 0 0-2.68-.01z" class="x"/><use xlink:href="#AO" x="12" y="-171" class="w"/><path d="M75.23 15.86l-53.89 31a3 3 0 0 0-1.33 2.31v30.08c0 .86.6 1.2 1.33.78l53.89-31a2.94 2.94 0 0 0 1.34-2.31V16.64c0-.86-.6-1.2-1.34-.78z" class="v"/><text transform="matrix(.9 -.5 -.01 1 24.14 69.05)" font-size="17.97" class="z AA AB">RAILS</text><path d="M395.23 2.32l-53.89 31.05a2.94 2.94 0 0 0-1.34 2.31v30.08a2.89 2.89 0 0 0 1.34 2.3l5.32 3a3 3 0 0 0 2.68 0l53.89-31a2.94 2.94 0 0 0 1.34-2.31V7.64a2.92 2.92 0 0 0-1.34-2.31l-5.32-3a3 3 0 0 0-2.68-.01z" class="x"/><path d="M404.55 7.39c-.1-.67-.65-.91-1.32-.53l-53.88 31.05a2.7 2.7 0 0 0-.95 1l-8-4.59a2.66 2.66 0 0 1 .92-1l53.89-31a3 3 0 0 1 2.68 0l5.32 3a2.94 2.94 0 0 1 1.34 2.07z" class="w"/><path d="M403.23 6.86l-53.89 31.05a3 3 0 0 0-1.33 2.31V70.3c0 .86.6 1.2 1.33.78l53.89-31a2.94 2.94 0 0 0 1.34-2.31V7.64c0-.86-.6-1.2-1.34-.78z" class="v"/><text class="m z AA AB" transform="matrix(.9 -.5 -.01 1 352.78 59.13)" font-size="16.14">&lt;DIV&gt;</text><path d="M725.34 10.32l53.89 31.05a2.94 2.94 0 0 1 1.34 2.31v30.08a2.89 2.89 0 0 1-1.34 2.3l-5.32 3a3 3 0 0 1-2.69 0l-53.88-31a2.94 2.94 0 0 1-1.34-2.31V15.64a2.92 2.92 0 0 1 1.34-2.31l5.32-3a3 3 0 0 1 2.68-.01z" class="x"/><use xlink:href="#AP" class="w"/><path d="M717.34 14.86l53.88 31a2.94 2.94 0 0 1 1.34 2.31v30.08c0 .86-.6 1.2-1.34.78l-53.88-31a2.94 2.94 0 0 1-1.34-2.31V15.64c0-.86.6-1.2 1.34-.78z" class="v"/><text class="n z AA AB" transform="matrix(.87 .49 -.04 1 720.03 42.82)" font-size="21.97">RUBY</text><path d="M704.34 105.32l53.89 31.05a2.94 2.94 0 0 1 1.34 2.31v30.08a2.89 2.89 0 0 1-1.34 2.3l-5.32 3a3 3 0 0 1-2.69 0l-53.88-31.05a2.94 2.94 0 0 1-1.34-2.31v-30.06a2.92 2.92 0 0 1 1.34-2.31l5.32-3a3 3 0 0 1 2.68-.01z" class="x"/><use xlink:href="#AP" x="-21" y="95" class="w"/><path d="M696.34 109.86l53.88 31a2.94 2.94 0 0 1 1.34 2.31v30.08c0 .86-.6 1.2-1.34.78l-53.88-31.05a2.94 2.94 0 0 1-1.34-2.31v-30.03c0-.86.6-1.2 1.34-.78z" class="v"/><text class="o z AA AB" transform="matrix(.86 .47 -.08 1 696.25 137.27)" font-size="22.66">HTML</text><path d="M579.34.32l53.89 31.05a2.94 2.94 0 0 1 1.34 2.31v30.08a2.89 2.89 0 0 1-1.34 2.33l-5.32 3a3 3 0 0 1-2.69 0l-53.88-31a2.94 2.94 0 0 1-1.34-2.31V5.64a2.92 2.92 0 0 1 1.34-2.31l5.32-3a3 3 0 0 1 2.68-.01z" class="x"/><path d="M570.02 5.39c.1-.67.65-.91 1.32-.53l53.88 31.05a2.7 2.7 0 0 1 1 1l8-4.59a2.66 2.66 0 0 0-.92-1l-53.89-31a3 3 0 0 0-2.68 0l-5.32 3a2.94 2.94 0 0 0-1.39 2.07z" class="w"/><path d="M571.34 4.86l53.88 31.05a2.94 2.94 0 0 1 1.34 2.31V68.3c0 .86-.6 1.2-1.34.78l-53.88-31a2.94 2.94 0 0 1-1.34-2.31V5.64c0-.86.6-1.2 1.34-.78z" class="v"/><text class="p z AA AB" transform="matrix(.86 .47 -.08 1 582.52 28.94)" font-size="16.04">T<tspan class="q" x="9.85" y="0">AIL</tspan><tspan class="q"><tspan x="-2.39" y="12.03">WIND</tspan></tspan></text><defs ><path id="B" d="M626.73 209.7v-.81a4.49 4.49 0 0 0-2-3.53l-179-103.27a4.51 4.51 0 0 0-4.08 0l-110.12 63.6a4.49 4.49 0 0 0-2 3.53v.87a4.49 4.49 0 0 0 2 3.53l179 103.26a4.57 4.57 0 0 0 4.08 0l110.12-63.65a4.49 4.49 0 0 0 2-3.53z"/><path id="C" d="M512.55 271.81v5.52a4.24 4.24 0 0 0 2-.49l110.18-63.6a4.51 4.51 0 0 0 2-3.53v-.82a4.53 4.53 0 0 0-1.66-3.26c.73.63.61 1.5-.38 2.09l-110.12 63.6a4.13 4.13 0 0 1-2.02.49z"/><path id="D" d="M624.73 207.71l-110.14 63.61a4.51 4.51 0 0 1-4.08 0L331.5 168.09a1.24 1.24 0 0 1 0-2.35l110.12-63.65a4.51 4.51 0 0 1 4.08 0l179.03 103.27a1.24 1.24 0 0 1 0 2.35z"/><path id="E" d="M559.31 177.83v-76.68a2.72 2.72 0 0 0-1.22-2.12L453.42 38.61c-.67-.39-1.22-.08-1.22.7v76.68a2.69 2.69 0 0 0 1.22 2.12l104.67 60.43c.64.39 1.22.07 1.22-.71z"/><path id="F" d="M506.04 59.55l13.69 7.88a1.49 1.49 0 0 1 .69 1.15c0 .42-.31.58-.69.35l-13.69-7.84a1.48 1.48 0 0 1-.69-1.15c0-.45.31-.61.69-.39z"/><path id="G" d="M506.04 65.55l6.42 3.7a1.49 1.49 0 0 1 .69 1.15c0 .41-.31.57-.69.35l-6.42-3.66a1.49 1.49 0 0 1-.69-1.15c0-.46.31-.61.69-.39z"/><path id="H" d="M506.04 77.56l6.42 3.7a1.51 1.51 0 0 1 .69 1.16c0 .41-.31.57-.69.35l-6.42-3.7a1.51 1.51 0 0 1-.69-1.16c0-.41.31-.57.69-.35z"/><path id="I" d="M506.04 83.57l6.42 3.7a1.49 1.49 0 0 1 .69 1.15c0 .42-.31.58-.69.35l-6.42-3.7a1.48 1.48 0 0 1-.69-1.15c0-.41.31-.57.69-.35z"/><path id="J" d="M522.45 68.98l8.22 4.77a1.48 1.48 0 0 1 .7 1.15c0 .42-.31.57-.7.35l-8.22-4.76a1.5 1.5 0 0 1-.7-1.16c-.02-.41.31-.57.7-.35z"/><path id="K" d="M516.45 71.56l13.71 7.88a1.46 1.46 0 0 1 .7 1.15c0 .41-.31.57-.7.35l-13.71-7.85a1.48 1.48 0 0 1-.7-1.15c-.02-.45.31-.61.7-.38z"/><path id="L" d="M532.85 80.99l57.23 33.1a1.51 1.51 0 0 1 .69 1.16c0 .41-.31.57-.69.35l-57.23-33.11a1.49 1.49 0 0 1-.69-1.15c0-.42.31-.57.69-.35z"/><path id="M" d="M506.04 101.72l6.42 3.7a1.49 1.49 0 0 1 .69 1.15c0 .42-.31.57-.69.35l-6.42-3.7a1.48 1.48 0 0 1-.69-1.15c0-.41.31-.57.69-.35z"/><path id="N" d="M506.04 107.73l6.42 3.7a1.48 1.48 0 0 1 .69 1.15c0 .41-.31.57-.69.35l-6.42-3.7a1.49 1.49 0 0 1-.69-1.15c0-.42.31-.57.69-.35z"/><path id="O" d="M506.04 113.73l6.42 3.7a1.49 1.49 0 0 1 .69 1.15c0 .42-.31.58-.69.36l-6.42-3.71a1.48 1.48 0 0 1-.69-1.15c0-.41.31-.57.69-.35z"/><path id="P" d="M496.04 53.57l3.77 2.18a1.51 1.51 0 0 1 .68 1.18v1.39c0 .44-.3.61-.68.4l-3.77-2.18a1.52 1.52 0 0 1-.69-1.19v-1.39c0-.43.31-.61.69-.39z"/><path id="Q" d="M496.04 71.76l3.77 2.18a1.51 1.51 0 0 1 .68 1.19v1.38c0 .44-.3.62-.68.4l-3.77-2.18a1.52 1.52 0 0 1-.69-1.18v-1.39c0-.44.31-.62.69-.4z"/><path id="R" d="M472.9 51.15l1.88 1.09a1.51 1.51 0 0 1 .7 1.15c0 .42-.32.57-.7.35l-1.88-1.09a1.48 1.48 0 0 1-.69-1.15c0-.41.31-.57.69-.35z"/><path id="S" d="M472.9 31.86l1.88 1.09a1.51 1.51 0 0 1 .7 1.15c0 .42-.32.57-.7.35l-1.88-1.08a1.51 1.51 0 0 1-.69-1.16c0-.41.31-.57.69-.35z"/><path id="T" d="M475.54 37.24l1.88 1.08a1.49 1.49 0 0 1 .69 1.15c0 .42-.31.58-.69.35l-1.88-1.08a1.49 1.49 0 0 1-.69-1.15c0-.42.31-.57.69-.35z"/><path id="U" d="M475.54 41.09l1.88 1.09a1.49 1.49 0 0 1 .69 1.15c0 .42-.31.57-.69.35l-1.88-1.08a1.49 1.49 0 0 1-.69-1.15c0-.43.31-.59.69-.36z"/><path id="V" d="M472.9 43.43l1.88 1.09a1.51 1.51 0 0 1 .7 1.15c0 .42-.32.57-.7.35l-1.88-1.08a1.5 1.5 0 0 1-.69-1.16c0-.41.31-.57.69-.35z"/><path id="W" d="M475.54 48.81l1.88 1.09a1.48 1.48 0 0 1 .69 1.15c0 .41-.31.57-.69.35l-1.88-1.09a1.48 1.48 0 0 1-.69-1.15c0-.41.31-.57.69-.35z"/><path id="X" d="M478.05 34.83l11.46 6.63a1.46 1.46 0 0 1 .7 1.15c0 .41-.31.57-.7.35l-11.46-6.62a1.48 1.48 0 0 1-.7-1.16c0-.41.31-.57.7-.35z"/><path id="Y" d="M478.05 54.09l11.46 6.63a1.46 1.46 0 0 1 .7 1.15c0 .41-.31.57-.7.35l-11.46-6.62a1.5 1.5 0 0 1-.7-1.16c0-.35.31-.54.7-.35z"/><path id="Z" d="M480.73 40.21l8.82 5.1a1.48 1.48 0 0 1 .7 1.16c0 .41-.31.57-.7.35l-8.82-5.11a1.48 1.48 0 0 1-.7-1.15c-.04-.42.27-.57.7-.35z"/><path id="a" d="M480.73 44.09l8.82 5.11a1.48 1.48 0 0 1 .7 1.15c0 .42-.31.57-.7.35l-8.82-5.13a1.48 1.48 0 0 1-.7-1.15c-.04-.42.27-.58.7-.33z"/><path id="b" d="M478.05 46.41l11.46 6.62a1.48 1.48 0 0 1 .7 1.15c0 .42-.31.57-.7.35l-11.46-6.62a1.48 1.48 0 0 1-.7-1.15c0-.42.31-.57.7-.35z"/><path id="c" d="M480.73 51.78l8.82 5.11a1.46 1.46 0 0 1 .7 1.15c0 .41-.31.57-.7.35l-8.82-5.11a1.46 1.46 0 0 1-.7-1.15c-.04-.41.27-.57.7-.35z"/><path id="d" d="M472.9 63.01l1.88 1.08a1.51 1.51 0 0 1 .7 1.15c0 .42-.32.57-.7.35l-1.88-1.08a1.49 1.49 0 0 1-.69-1.15c0-.41.31-.57.69-.35z"/><path id="e" d="M475.54 68.39l1.88 1.08a1.5 1.5 0 0 1 .69 1.16c0 .41-.31.57-.69.35l-1.88-1.09a1.49 1.49 0 0 1-.69-1.15c0-.42.31-.57.69-.35z"/><path id="f" d="M475.54 72.24l1.88 1.08a1.49 1.49 0 0 1 .69 1.15c0 .42-.31.57-.69.35l-1.88-1.08a1.49 1.49 0 0 1-.69-1.15c0-.42.31-.58.69-.35z"/><path id="g" d="M472.9 74.59l1.88 1.08a1.51 1.51 0 0 1 .7 1.15c0 .42-.32.57-.7.35l-1.88-1.08a1.49 1.49 0 0 1-.69-1.15c0-.42.31-.58.69-.35z"/><path id="h" d="M478.05 65.99l11.46 6.62a1.46 1.46 0 0 1 .7 1.15c0 .41-.31.57-.7.35l-11.46-6.62a1.48 1.48 0 0 1-.7-1.15c0-.42.31-.58.7-.35z"/><path id="i" d="M480.73 71.36l8.82 5.11a1.46 1.46 0 0 1 .7 1.15c0 .41-.31.57-.7.35l-8.82-5.11a1.48 1.48 0 0 1-.7-1.15c-.04-.42.27-.57.7-.35z"/><path id="j" d="M480.73 75.22l8.82 5.1a1.48 1.48 0 0 1 .7 1.15c0 .42-.31.58-.7.36l-8.82-5.11a1.48 1.48 0 0 1-.7-1.15c-.04-.42.27-.58.7-.35z"/><path id="k" d="M478.05 77.56l11.46 6.62a1.48 1.48 0 0 1 .7 1.15c0 .42-.31.57-.7.35l-11.46-6.59a1.48 1.48 0 0 1-.7-1.15c0-.45.31-.6.7-.38z"/><path id="l" d="M475.54 79.98l1.88 1.09a1.49 1.49 0 0 1 .69 1.15c0 .42-.31.57-.69.35l-1.88-1.08a1.49 1.49 0 0 1-.69-1.15c0-.42.31-.58.69-.36z"/><path id="m" d="M475.54 83.83l1.88 1.09a1.49 1.49 0 0 1 .69 1.15c0 .41-.31.57-.69.35l-1.88-1.09a1.48 1.48 0 0 1-.69-1.15c0-.41.31-.57.69-.35z"/><path id="n" d="M480.73 82.95l8.82 5.11a1.48 1.48 0 0 1 .7 1.15c0 .42-.31.58-.7.35l-8.82-5.1a1.48 1.48 0 0 1-.7-1.15c-.04-.42.27-.58.7-.36z"/><path id="o" d="M480.73 86.81l8.82 5.11a1.48 1.48 0 0 1 .7 1.15c0 .42-.31.57-.7.35l-8.82-5.11a1.46 1.46 0 0 1-.7-1.15c-.04-.41.27-.57.7-.35z"/><path id="p" d="M472.9 93.92l1.88 1.09a1.49 1.49 0 0 1 .7 1.15c0 .41-.32.57-.7.35l-1.88-1.09a1.48 1.48 0 0 1-.69-1.15c0-.41.31-.57.69-.35z"/><path id="q" d="M478.05 96.89l11.46 6.63a1.46 1.46 0 0 1 .7 1.15c0 .41-.31.57-.7.35l-11.46-6.62a1.48 1.48 0 0 1-.7-1.15c0-.42.31-.58.7-.36z"/><path id="r" d="M475.54 99.32l1.88 1.09a1.48 1.48 0 0 1 .69 1.15c0 .41-.31.57-.69.35l-1.88-1.09a1.48 1.48 0 0 1-.69-1.15c0-.41.31-.58.69-.35z"/><path id="s" d="M475.54 103.17l1.88 1.08a1.51 1.51 0 0 1 .69 1.16c0 .41-.31.57-.69.35l-1.88-1.09a1.49 1.49 0 0 1-.69-1.15c0-.43.31-.57.69-.35z"/><path id="t" d="M480.73 102.29l8.82 5.11a1.46 1.46 0 0 1 .7 1.15c0 .41-.31.57-.7.35l-8.82-5.11a1.46 1.46 0 0 1-.7-1.15c-.04-.41.27-.55.7-.35z"/><path id="u" d="M480.73 106.15l8.82 5.11a1.46 1.46 0 0 1 .7 1.15c0 .41-.31.57-.7.35l-8.82-5.11a1.48 1.48 0 0 1-.7-1.15c-.04-.41.27-.57.7-.35z"/><path id="v" d="M478.05 92.98l11.46 6.63a1.46 1.46 0 0 1 .7 1.15c0 .41-.31.57-.7.35l-11.46-6.62a1.5 1.5 0 0 1-.7-1.16c0-.41.31-.57.7-.35z"/><path id="w" d="M472.9 105.57l1.88 1.09a1.49 1.49 0 0 1 .7 1.15c0 .41-.32.57-.7.35l-1.88-1.07a1.48 1.48 0 0 1-.69-1.15c0-.43.31-.59.69-.37z"/><path id="x" d="M478.05 108.55l11.46 6.62a1.46 1.46 0 0 1 .7 1.15c0 .41-.31.57-.7.35l-11.46-6.58a1.48 1.48 0 0 1-.7-1.15c0-.46.31-.62.7-.39z"/><path id="y" d="M588.64 150.16l15.38 8.87a1.21 1.21 0 0 1 .56.93c0 .34-.25.47-.56.29l-15.38-8.87a1.21 1.21 0 0 1-.56-.94c0-.35.25-.46.56-.28z"/><path id="z" d="M588.64 155.03l5.22 3a1.21 1.21 0 0 1 .56.93c0 .34-.25.47-.56.29l-5.22-3a1.21 1.21 0 0 1-.56-.93c0-.34.25-.47.56-.29z"/><path id="AA" d="M588.64 159.91l5.22 3a1.21 1.21 0 0 1 .56.94c0 .33-.25.46-.56.28l-5.22-3a1.18 1.18 0 0 1-.56-.93c0-.34.25-.47.56-.29z"/><path id="AB" d="M597.1 169.68l15.38 8.87a1.21 1.21 0 0 1 .56.94c0 .33-.25.46-.56.28l-15.38-8.87a1.21 1.21 0 0 1-.56-.94c0-.33.25-.46.56-.28z"/><path id="AC" d="M614.66 179.81l6.69 3.88a1.18 1.18 0 0 1 .56.93c0 .34-.25.47-.56.29l-6.69-3.88a1.21 1.21 0 0 1-.56-.93c0-.34.25-.47.56-.29z"/><path id="AD" d="M606.2 160.29l6.69 3.87a1.21 1.21 0 0 1 .56.94c0 .33-.25.46-.56.28l-6.69-3.87a1.21 1.21 0 0 1-.56-.94c0-.33.25-.48.56-.28z"/><path id="AE" d="M597.1 159.91l15.38 8.88a1.19 1.19 0 0 1 .56.93c0 .34-.25.47-.56.29l-15.38-8.92a1.18 1.18 0 0 1-.56-.93c0-.3.25-.43.56-.25z"/><path id="AF" d="M614.66 170.09l6.69 3.87a1.21 1.21 0 0 1 .56.94c0 .33-.25.46-.56.28l-6.69-3.87a1.21 1.21 0 0 1-.56-.94c0-.38.25-.5.56-.28z"/><path id="AG" d="M546.43 379.6c-10.38-10.71-16.47-54.29-6.35-62.78h51.5c10.12 8.49 4 52.06-6.34 62.77l-.29.3c-.11.12-.23.24-.35.35-.3.29-.61.57-.94.84l-.25.2c-.25.2-.5.4-.78.6a15.26 15.26 0 0 1-1.34.87c-8.54 5-22.38 5-30.92 0h0c-.45-.26-.9-.56-1.35-.88-.26-.18-.49-.37-.73-.56l-.3-.24a12.15 12.15 0 0 1-.91-.81l-.41-.41a2.83 2.83 0 0 1-.24-.25z"/><path id="AH" d="M587.11 313.4c11.75 6.86 11.75 18 0 24.85s-30.81 6.86-42.56 0-11.75-18 0-24.85 30.81-6.86 42.56 0z"/><path id="AI" d="M581.46 316.7c8.63 5 8.63 13.21 0 18.25s-22.63 5-31.26 0-8.63-13.21 0-18.25 22.63-5.04 31.26 0z"/><path id="AJ" d="M561.61 303.37a14.43 14.43 0 0 1-1.31-3.76c-.58-3.14.2-6.73 2.74-8.67 1-.76 2.33-1.33 2.76-2.53a4.14 4.14 0 0 0 0-2.07c-.47-2.68-1.37-5.44-.63-8.05a9 9 0 0 1 5-5.36 27 27 0 0 1 7.27-1.9 11.77 11.77 0 0 0 3.85-1.1c1.44-.81 1.89-2.23 2.78-3.48a24.3 24.3 0 0 1 3.54-3.77c2.62-2.34 5.9-4.27 9.53-4.11 7.58.33 7.36 6.85 5.18 11.79s-2.76 6.55 2 11.7 4.74 11.5-.91 15-9.32 4-7.08 10.86c2 6.11 3.23 11.32-2.41 17.85-3.65 4.22-8.64 7.23-14.88 7a25.12 25.12 0 0 1-7.31-1.68c-1.72-.85-.56-2.18-1.14-3.88l-3.74-10.92a81.09 81.09 0 0 0-3-8.62c-.69-1.5-1.53-2.87-2.24-4.3z"/><path id="AK" d="M566.65 335.09a31.45 31.45 0 0 1-16.43.6c-9.42-2-15.19-10.84-15.19-10.84s10.2-4.08 16.14-4.48a52.62 52.62 0 0 0-17.85.38c0 0-5.46-2-4.43-11.24 0 0 5.14-3.79 17-2.3 0 0-5.92-4.23-16.31-5.48-.82 0 .29-12 1.28-17.35s3-4.52 7.2-4.06 16.81 3.32 18.4 6.4 0 10.94 0 10.94a18 18 0 0 0 3.46-10.28s4.73 1.73 7.26 4a16.82 16.82 0 0 1 4.52 5.66c-.59 4.21-2.57 10.64-5.35 14.23 0 0 6.26-4.05 7.69-11.49a26 26 0 0 1 5 14.65c-.09 9.41-4.31 16.4-12.39 20.66z"/><path id="AL" d="M401.98 317.17c2.48 1.71 7.62.52 13.17-.11 5.24-.6 11.13-2.44 14.69-1.2s6.53 5.42 1.72 10.79c-1.39 1.55-4.33 4.28-6.69 5.13-6 2.14-11.34 2.31-15.18 3.26-5 1.23-7.74 3.45-12.36 4-6 .7-9.78-.84-10.82-2.44s-2-14.49.57-14.22c0 0 1.08 4.17 10.87.12 4.27-1.79 4.2-4.41 4.03-5.33z"/><path id="AM" d="M437.36 332.96a10.44 10.44 0 0 0 1.23.76 3.67 3.67 0 0 0 1.36.28 18.9 18.9 0 0 0 3.28.08l8.21-.79c5.63-.5 12-2.32 15.79-.9s7.25 6 1.94 11.61a26 26 0 0 1-7.1 5.39c-6.29 2.63-12.82 2.14-17 3.06-5.4 1.19-8.4 3.5-13.38 3.95-6.45.59-10.47-1.16-11.54-2.91-.6-1 .06-6-.74-9.95-.7-3.38-.52-5.68.7-5.53a6 6 0 0 0 .94 1.2 4.51 4.51 0 0 0 1.43 1.13 11.29 11.29 0 0 0 2.42.81 14.29 14.29 0 0 0 4.49.62 2.18 2.18 0 0 0 1.22-.39 2.57 2.57 0 0 0 .71-1.52l.31-1.5a2.1 2.1 0 0 1 .28-.77 2 2 0 0 1 .76-.61 6.56 6.56 0 0 0 2.46-1.87 5.78 5.78 0 0 0 .72-2.32.57.57 0 0 1 .16-.38c.18-.14.45 0 .65.11z"/><path id="AN" d="M400.45 282.03c1.17-6.56-4.17-11.68-14.23-18.47a238.45 238.45 0 0 0-29.13-16.37c-8.42-3.86-17-3.5-27.79 2-15 7.69-60 35-60 35s67.32 38 80.27 36.3 45.32-22.76 47.89-30.17l2.99-8.29z"/><path id="AO" d="M64.55 187.39c-.1-.67-.65-.91-1.32-.53l-53.88 31a2.7 2.7 0 0 0-.95 1l-8-4.59a2.66 2.66 0 0 1 .92-1l53.89-31a3 3 0 0 1 2.68 0l5.32 3a2.94 2.94 0 0 1 1.34 2.12z"/><path id="AP" d="M716.02 15.39c.1-.67.65-.91 1.32-.53l53.88 31a2.7 2.7 0 0 1 1 1l8-4.59a2.66 2.66 0 0 0-.92-1l-53.89-31a3 3 0 0 0-2.68 0l-5.32 3a2.94 2.94 0 0 0-1.39 2.12z"/></defs></svg>