<svg xmlns="http://www.w3.org/2000/svg" xmlns:xlink="http://www.w3.org/1999/xlink" viewBox="0 0 453.88 359.38" xmlns:v="https://vecta.io/nano"><style><![CDATA[.A{isolation:isolate}.R,.B,.C,.H{mix-blend-mode:multiply}.h{fill:#6c899c}.i{fill-rule:evenodd}.j{fill:#333}.k{fill:#3e3a39}.l{fill:#f9d8c6}]]></style><g class="A"><g fill="#e6e6e6"><rect class="B" x="10.88" y="318" width="443" height="8.01" rx="3.65"/><g class="i C"><use xlink:href="#B" opacity=".32"/><use xlink:href="#B" x="-157.24" y="13.24" opacity=".32"/></g></g><g><path d="M83.66 43.65c-11.63 41.8-10 89.41 7.43 112 4.67 15.05 36.53 14.84 43.85-21.78 9.18-28.91-1.25-56.48.07-68.33 1.26-11.37-2.46-41.62-19.44-40.93-6 .24-9.14 1.1-9.75 1-11.76-2.43-19.94 4.3-22.16 18.04z" class="i j"/><rect x="173.11" y="18.36" width="264.51" height="302.39" rx="14.9" fill="#723877"/><path d="M191.06 34.97l231.61-2.66 2.99 279.8h-234.6V34.97z" fill="#005278" class="i"/><path d="M188.07 32.31h234.6v277.14h-234.6z" fill="#b8bcff"/><g class="i"><path class="H" d="M291.66 1h27.41l1.61 11.71 14.2 5.29h22l-.17 21.33a5.28 5.28 0 0 1-5.28 5.28h-90.12a5.28 5.28 0 0 1-5.29-5.28V17.45a4.75 4.75 0 0 1 4.74-4.74h29.29L291.66 1zm15.37 3.18a3.41 3.41 0 0 0-3.069 5.761 3.41 3.41 0 0 0 5.749-3.091 3.41 3.41 0 0 0-2.68-2.67z" fill="#999"/><path d="M290.66 0h29.41l1.61 11.71h29.29a4.75 4.75 0 0 1 4.74 4.74v21.88a5.28 5.28 0 0 1-5.28 5.28h-90.12a5.28 5.28 0 0 1-5.29-5.28V16.45a4.75 4.75 0 0 1 4.74-4.74h29.29L290.66 0zm15.37 3.18a3.41 3.41 0 0 0-3.069 5.761 3.41 3.41 0 0 0 5.749-3.091 3.41 3.41 0 0 0-2.68-2.67z" fill="#f7931e"/><path d="M369.39 75.8h27.12v27.12h-27.12V75.8zm29.17-2.06h-31.23V105h31.23z" class="h"/><path d="M370.53 80.68h0l11.75 19 20.87-38h0s-21.91 28.42-22.19 27.85-10.43-8.85-10.43-8.85z" class="k"/><path d="M369.39 131.21h27.12v27.12h-27.12v-27.12zm29.17-2.05h-31.23v31.23h31.23z" class="h"/><path d="M370.53 136.09h0l11.75 19 20.87-38h0s-21.91 28.44-22.19 27.91-10.43-8.91-10.43-8.91z" class="k"/><path d="M369.39 186.63h27.12v27.12h-27.12v-27.12zm29.17-2.06h-31.23v31.24h31.23z" class="h"/><path d="M370.53 191.5h0l11.75 19 20.87-38h0s-21.91 28.5-22.19 27.88-10.43-8.88-10.43-8.88z" class="k"/><path d="M369.39 242h27.12v27.12h-27.12V242zm29.17-2h-31.23v31.24h31.23z" class="h"/><path d="M370.53 246.92h0l11.75 19 20.87-38h0s-21.91 28.42-22.19 27.85-10.43-8.85-10.43-8.85z" class="k"/><path d="M202.42 84.08H335.5a1.5 1.5 0 0 0 1.5-1.49h0a1.5 1.5 0 0 0-1.5-1.5H202.42a1.5 1.5 0 0 0-1.5 1.5h0a1.5 1.5 0 0 0 1.5 1.49z" class="h"/></g><rect x="200.92" y="88.74" width="136.08" height="2.99" rx="1.5" class="h"/><rect x="200.92" y="96.38" width="63.47" height="2.99" rx="1.5" class="h"/><path d="M202.42 139.24H335.5a1.49 1.49 0 0 0 1.5-1.49h0a1.5 1.5 0 0 0-1.5-1.5H202.42a1.5 1.5 0 0 0-1.5 1.5h0a1.49 1.49 0 0 0 1.5 1.49zm0 7.65H335.5a1.5 1.5 0 0 0 1.5-1.5h0a1.5 1.5 0 0 0-1.5-1.49H202.42a1.5 1.5 0 0 0-1.5 1.49h0a1.5 1.5 0 0 0 1.5 1.5zm0 7.64h80.25a1.49 1.49 0 0 0 1.49-1.49h0a1.5 1.5 0 0 0-1.49-1.5h-80.25a1.5 1.5 0 0 0-1.54 1.46h0a1.5 1.5 0 0 0 1.54 1.53z" class="i h"/><rect x="200.92" y="191.42" width="136.08" height="2.99" rx="1.5" class="h"/><rect x="200.92" y="199.06" width="136.08" height="2.99" rx="1.5" class="h"/><path d="M202.42 209.69h98.36a1.49 1.49 0 0 0 1.49-1.49h0a1.5 1.5 0 0 0-1.49-1.5h-98.36a1.5 1.5 0 0 0-1.5 1.5h0a1.5 1.5 0 0 0 1.5 1.49z" class="h i"/><rect x="200.92" y="246.58" width="136.08" height="2.99" rx="1.5" class="h"/><rect x="200.92" y="254.22" width="136.08" height="2.99" rx="1.5" class="h"/><g class="i"><path d="M202.42 264.85h32.23a1.49 1.49 0 0 0 1.5-1.49h0a1.5 1.5 0 0 0-1.5-1.5h-32.23a1.5 1.5 0 0 0-1.5 1.5h0a1.49 1.49 0 0 0 1.5 1.49z" class="h"/><path d="M345.47 18.36c-20.29 6.45-46 10.3-74 10.3-5.57 0-11.06-.15-16.43-.44v10.05a5.34 5.34 0 0 0 5.34 5.34h90.5a4.82 4.82 0 0 0 4.82-4.82V16.45a4.68 4.68 0 0 0-.29-1.64q-4.72 1.89-9.94 3.55z" fill="#f79e36"/><g class="l"><path d="M116.11 217.53c-.31 2.81 2 21.32 2.41 25.45-2 30 .35 59.36-1.74 76.38l6 .13c.22-32.05 5.06-37.44 4.08-78.18.87-8 1.93-11.63 2.81-19.68zm-25.05-1.07q-.84 6.74-1.66 13.46c.52 5.39.93 6.32 1.45 11.71-2.43 30 3.89 60.26 1.58 77.29l6 .12c.64-32 1.37-37.13.92-77.87 1-8.05-1.49-14.3-.51-22.35zm41.97-105.8l9.24-2.6 5.43 33.24 20.09 25.08-2.03 5.72-4.49-2.31-25.18-22-3.06-37.13z"/><path d="M117.48 310.34c-.86 1.25-2.13 6.31-1.88 7.66.36 1.9 11.65.84 11.65.84l-4.37-7.34z"/></g><path d="M115.41 321.08c.2.48 14.16.38 14.16.38 2.47-8.06-17.81-9.1-14.16-.38z" fill="#c1272d"/><path d="M92.88 311.2c-.86 1.24-2.14 6.3-1.88 7.66.35 1.89 11.65.83 11.65.83l-4.33-7.34z" class="l"/><path d="M89.93 321.24c.2.47 14.19 0 14.19 0 2.47-8.09-17.84-8.73-14.19 0z" fill="#c1272d"/><path d="M97.46 154.58c-2.49 3.23-11.63 9.16-13.11 13-7.86 20.07 6.53 113.27 8.53 143.62l6.14-.15c4-41 3.56-119.76 10.26-119.85 4.45-.06 7.78 115.37 7.89 119.05.83.21 5.94.19 5.78.27s12.25-89.14 13.5-113.26v-1.79c.08-7.47-.56-22-1.07-26.09-1.53-12.1-5.12-11.21-5.12-11.21z" fill="#3b3050"/><g fill="#bdb1d6"><path d="M123.98 84.08l9 1.91c4.68 1.15 8.39 20.15 10.29 28.4l-9.49 3.09s-8.58-15.21-9.31-17.46c-1.59-4.93-2.04-11.38-.49-15.94z"/><path d="M108.88 83.55a77.39 77.39 0 0 0-8.8 0 112.87 112.87 0 0 0-16.93 2.75c-.6 9 1.47 16.05 3.67 24.38 5 18.94 3 39.24-2.42 56.88 13.76 4.62 35.73 5.2 51.09 1.84-2.68-27.7-8.73-36.06-6.15-45 3.74-1.73 6.46-6.15 6.46-12.09 0-8.48-2.23-18.61-2.74-26.28-3.95-.88-9.28-2.39-15.37-2.46-3.53-.08-6.25-.06-8.81-.02z"/></g><path class="R" d="M134.12 158.66c-1-6.38-2.05-11.45-3-15.65l-41.69-15.44c.19 3.08.23 6.17.13 9.24z" fill="#f2f2f2"/><path d="M115.7 73.59s-1 8.55 2.79 10c4.94 1.82-3.63 9.09-8.88 9.56-5 .45-15.34-7.87-10.19-9.71 3.54-1.26 2-9.76 2-9.76 1.37-6.68 11.92-8.35 14.28-.09z" fill="#efc2a9"/><path d="M105.15 31.89h0c9.94-.9 20.77 4.46 20.62 14.25-.17 11.1 1.63 33.61-14 35.86-9.06 1.3-15.61-6.75-17.41-13.4l-4.29-15.8c-2.55-9.46 5.14-20.02 15.08-20.91z" class="l"/><path d="M109.88 51.61a.58.58 0 0 1 .15.8.57.57 0 0 1-.79.15 8.27 8.27 0 0 0-4.5-.54c-1.59.15-3.07.57-3.58 1.26a.58.58 0 1 1-.92-.69c.72-1 2.51-1.53 4.39-1.71 2.02-.2 4.25.05 5.25.73zm14.17.04a.572.572 0 1 1-.73.88 8.27 8.27 0 0 0-4.42-1c-1.6 0-3.11.24-3.69.87a.58.58 0 0 1-.85-.78c.83-.89 2.67-1.26 4.55-1.24 2.05.01 4.22.5 5.14 1.27z" class="j"/></g><g fill="#ff7bac"><ellipse cx="103.88" cy="62.5" rx="4" ry="1.5" opacity=".14"/><ellipse cx="119.88" cy="62.5" rx="4" ry="1.5" opacity=".14"/></g><g class="i"><path d="M99.88 34.38c14.19-4.43 26.9 16.35 26.9 16.35 0-11.68-4.74-25.57-21.51-25-3.39.09-4.11 5.1-5.39 8.65z" class="j"/><path d="M91.66 92.87c-.48-.55-8.56-6.59-8.56-6.59-2.52 1.45-10.75 8.85-17.11 20.5L78.81 117s13.66-15.31 13.84-18a19.62 19.62 0 0 0-.99-6.13z" fill="#bdb1d6"/><path d="M97.16 50.68a28 28 0 0 1-.53 8.3c-.8 3.4-2.28 2.59-2.28 2.59l-.16-9.95z" class="j"/><path d="M92.07 53c1.86-.17 3.64 2.6 4 6.19s-.93 6.62-2.8 6.79-3.64-2.6-4-6.19.93-6.65 2.8-6.79z" class="l"/><path d="M117.12 70.71v.17c.1 2.67-2.36 4.87-5.5 4.91s-5.76-2.11-5.86-4.78v-.17z" fill="#fff"/><path d="M111.93 55.77c-.05.21-.75 1.68 1.3 5.2s3 3.87 3 3.87a8.16 8.16 0 0 1-3.94 1.93c-2.44.45-3.11.11-3.11.11l4.13-3c-1.43-2-2.79-5.8-1.38-8.11z" fill="#f0c0a8"/><path d="M119.33 54.79a1.83 1.83 0 0 1 1.61 2.976 1.83 1.83 0 0 1-3.24-.976 1.82 1.82 0 0 1 1.63-2z" class="j"/><path d="M109.22 53.57a2.89 2.89 0 0 0-1.2-.91c-3-1.08-11.31-.63-13.51-.08-.29.07-.32.06-.35.25a6.33 6.33 0 0 0 0 1.51c.09.17.53.24.92.81.69 1 .64 4.72 2.29 6.48s8.21 1.88 10-.54a19.51 19.51 0 0 0 2.36-5.09 1.47 1.47 0 0 1 1-.45 2.56 2.56 0 0 1 .43 0 2.6 2.6 0 0 1 .44 0 1.49 1.49 0 0 1 1 .45 19.48 19.48 0 0 0 2.35 5.09c1.76 2.42 8.25 2.36 10 .54s1.61-5.46 2.3-6.48c.39-.57.82-.64.91-.81a5.85 5.85 0 0 0 .06-1.51c0-.19-.07-.18-.35-.25-2.21-.55-10.51-1-13.52.08a3 3 0 0 0-1.2.91 17.34 17.34 0 0 1-3.9 0zm15.6-.4h0a1.37 1.37 0 0 1 1.09.89 9.25 9.25 0 0 1 0 3.67 8.1 8.1 0 0 1-1.16 3.12c-1.79 2.23-7.72 2-9.2.05-1.14-1.48-3.09-5.88-.71-7.13 2-1.07 7.89-1.29 10-.6zm-27.3 0h0c2.08-.69 7.94-.47 10 .6 2.38 1.25.44 5.65-.7 7.13-1.48 1.92-7.41 2.18-9.21-.05a8.25 8.25 0 0 1-1.15-3.12 8.89 8.89 0 0 1 0-3.67 1.35 1.35 0 0 1 1.06-.89z" fill="#534741"/><path d="M105.33 54.79a1.83 1.83 0 1 1-1.62 2 1.82 1.82 0 0 1 1.62-2zm3.12-29.26s12.1 1.06 9.72 8.85c-4.11 13.44-22.9 21.8-31 23.71-4.13 1-2.76-6.86-2.76-6.86s-1.19-14 5.77-20.29 18.27-5.41 18.27-5.41z" class="j"/><path d="M113.51 30.44s.46 3.86-6.53 11.95-20.59 12-20.31 12.07 5.23-5.92 5.28-5.82-5.65 2.68-5.65 2.68l6.58-11.78-6.25 4.32s3.59-7.25 8.36-11.12 8-4.6 8-4.6a26.2 26.2 0 0 0-2.09 3.13c.09.18 8.5-4.34 8.5-4.34l-7 9.85z" fill="#383838"/></g><path d="M20.64 102.332l14.067-30.139 215.349 100.51-14.067 30.139z" fill="#f15a24"/><path d="M11.12 97.889l14.067-30.139 10.249 4.783-14.067 30.139z" fill="#fbe1cd"/><g class="i"><path d="M25.18 67.74L11.12 97.88l-6.8-3.17a7.52 7.52 0 0 1-3.62-10l7.72-16.55a7.51 7.51 0 0 1 10-3.62z" fill="#ff931e"/><path d="M298.14 213.46l-31.07-5.32-31.07-5.33 7.03-15.07 7.03-15.07 24.04 20.4 24.04 20.39z" fill="#f5b17a"/><path d="M298.14 213.46l-15.07-12.78-4.4 9.45 19.47 3.33z" class="k"/><path d="M267.07 208.14l11.6 1.99 2.4-5.16-37.4-18.61-7.67 16.45 31.07 5.33z" fill="#f7c193"/></g><path d="M21.38 102.683l7.676-16.447 214.615 100.168-7.676 16.447z" fill="#c9481a"/><g class="i"><path d="M21.38 102.66l7.67-16.45-.73-.34-9.52-4.44-7.68 16.45 9.52 4.44.74.34z" fill="#f6f3f2"/><path d="M11.12 97.88l7.68-16.45-13.6-6.35-4.5 9.66a7.52 7.52 0 0 0 3.62 10z" fill="#db7f1a"/><path d="M281.07 204.97l-2.4 5.16 19.47 3.33-17.07-8.49z" fill="#424040"/><g class="l"><path d="M176.11 176.2l4.07-4.85s.78-.78.27-1.42-1.93.13-2.73.52a20.71 20.71 0 0 0-3.06 2.88h-3.49a1.4 1.4 0 0 0 0 1.7c.82 1.57 3.46 1.2 4.94 1.17z"/><path d="M173.36 174.35l4.08-4.84s.78-.79.26-1.43-1.92.14-2.73.52a21.25 21.25 0 0 0-3.06 2.88h-3.49a1.4 1.4 0 0 0 0 1.7c.83 1.57 3.46 1.2 4.94 1.17z"/><path d="M170.73 173.24l4.07-4.84s.78-.79.26-1.43-1.92.13-2.73.52a21.06 21.06 0 0 0-3 2.88h-3.49a1.4 1.4 0 0 0 0 1.7c.77 1.57 3.4 1.2 4.89 1.17z"/><path d="M167.65 171.71l4.07-4.85s.79-.79.27-1.43-1.92.14-2.73.52a21.21 21.21 0 0 0-3.06 2.89l-3.34-.13a1.57 1.57 0 0 0-.18 1.85c.86 1.55 3.49 1.17 4.97 1.15zm5.6 3.87a29 29 0 0 1 5.25 2.56c.9.7 2-1.51.78-2.82s-5.57-2.32-5.57-2.32zM56.88 126l31-4 .9-5c-18.9-1-26.58-1.22-32.9-1-9.08.36-7 11 1 10z"/><path d="M83.88 117.39l4.09-.8 5.7-5.13c1-.5 6.11-2.24 5.24-1.06s-4.62 3.43-4.62 3.43l-.87 1.13 6.3-.69c1.74-.19 7.23-.68 6.73.37s-8 1.63-8 2.13 8.23.44 8.48 1 .33 1.24-.31 1.34-9.24-.21-8.77.14 8.5 1.35 8.69 2.33-8.72-.41-8.72-.41 6.55 3.31 5.82 4.25-3.65-1.38-5.29-2.08a18.87 18.87 0 0 0-2.26-.85 18.45 18.45 0 0 1-5.29.35 23.89 23.89 0 0 1-5.1-1.76l-1.71-3.72z"/></g></g><path d="M207.03 359.38a1.5 1.5 0 1 0 0-3 1.5 1.5 0 1 0 0 3z" fill="#b8bcff"/></g></g><defs ><path id="B" d="M400.52 339.25h-196a3.64 3.64 0 0 1-3.64-3.65h0a3.64 3.64 0 0 1 3.64-3.64h196a3.64 3.64 0 0 1 3.65 3.64h0a3.64 3.64 0 0 1-3.65 3.65z"/></defs></svg>