<svg id="Layer_1" data-name="Layer 1" xmlns="http://www.w3.org/2000/svg" viewBox="0 0 273.68 827.12"><defs><style>.cls-1{fill:#f48e69;}.cls-2{fill:#4f342c;}.cls-3{fill:#63443d;}.cls-4{fill:#a4cdeb;}.cls-5{fill:#b2def9;}.cls-6{fill:#314556;}.cls-7{fill:#fff;}.cls-8{fill:#e86a43;}.cls-9{fill:#3a2019;}.cls-10{fill:#663933;}.cls-11{fill:#23100c;}.cls-12{fill:#542316;}.cls-13{fill:#682c19;}.cls-14{fill:#efefef;}.cls-15{fill:#6d4425;}.cls-16{fill:#3a4f64;}</style></defs><path class="cls-1" d="M140.76,801.49c.67,3.43,1.4,6.8,2.15,10.16,1,4.38,2,8.74,3.08,13.19l2.24-.93,10.9-4.5a9,9,0,0,1-2.55-1.78c-2.23-2.1-4.25-5.45-6-9s-3.33-7.38-4.49-10.12C144.47,800,142.38,800.34,140.76,801.49Z"/><path class="cls-2" d="M142.91,811.65c1,4.38,1.63,9.75,2.69,14.2l2.63-1.94,8.35-6.28c-2.23-2.1-4.25-5.45-6-9a48.83,48.83,0,0,0-7,2.65Z"/><path class="cls-2" d="M145.6,825.85l38.63.11c-.56-.68-1.38-1.78-2.54-3.07-3.7-4.06-10.91-9.95-24.7-10-4.09,0-6.72.73-8.41,2.09C145.91,817.17,145.62,820.93,145.6,825.85Z"/><path class="cls-3" d="M148.58,815c4,2.35,10.72,4.69,18.43,6.25a77.24,77.24,0,0,0,14.68,1.64c-3.7-4.06-10.91-9.95-24.7-10C152.9,812.9,150.27,813.64,148.58,815Z"/><path class="cls-4" d="M95.68,454l43.54-10.19c9.73,51.32-9.34,159.93.18,186.56,9.43,26.32-2.17,117.85,12,170-3.88,2.68-9.69,4.19-14.21,5.21-12.25-51.37-31.47-96.17-41.57-142.68-3.53-16.23,12.21-20.34,11.81-36.27C105.84,562.63,84,513.55,95.68,454Z"/><path class="cls-1" d="M33.76,798.86c2.12-.75,4.59-.67,6.77-1.64,1.57,6.53,4.08,18.68,10,22.19l-16.28,2.35C33.94,814,33.67,806.55,33.76,798.86Z"/><path class="cls-2" d="M30.34,827.12l32-.63c-.49-.8-1.2-2.11-2.21-3.62-3.16-4.75-9.27-11.53-20.65-11.29-6.06.12-7,2.51-7.76,7.4C31.37,821.19,31.06,823.89,30.34,827.12Z"/><path class="cls-3" d="M31.71,819.19a71.89,71.89,0,0,0,15.19,3,76.2,76.2,0,0,0,13.28.24c-3.25-4.62-9.47-11.2-20.84-10.74C33.28,812,32.39,814.35,31.71,819.19Z"/><path class="cls-4" d="M18.94,650.48c-8,52.15-.83,95.73,11.74,148.66,4,1.55,8.71,3.63,13.1,2.21-1.36-8.94-1.47-19.55-.77-30.68,1.38-22,5.93-46.18,10.24-63.67,6.52-26.48,18.31-46.56,15.81-74.76C66.54,603.72,117,493.56,135.31,454l-49.78-3.8-24,3.16c-1.61,11.11-7.3,49.86-8.5,58.28-4.84,33.95-4.92,69.11-13.78,107.45C35.72,634.53,21.47,634,18.94,650.48Z"/><path class="cls-5" d="M28.72,681c-2.2,15.12-1.62,53.06,3.75,67.31,1.91,5.08,3.11,13.25,4,21.3,1.38-22,5.92-46.18,10.24-63.66,6.52-26.48,18.31-46.56,15.81-74.77-2.52-28.52,42.79-127.51,46.21-179.9-5.11-4.33-26.84-5.86-29.58-2.38l-.16.22c-10.11,14.4-24.7,177.87-27.1,182.28-3.45,6.37-11.43,10.81-15.58,17.2C30.69,657.17,30.24,670.51,28.72,681Z"/><path class="cls-1" d="M178.64,20.88c1.44-5.88,5.66,1.88,2.38,5,4.27.21,9.56-5.47,13.54.23,2.83,4.05.37,11.69,1,16.2l-5.19,5.88c-1.07-5.78-1.1-9.88-5.63-12.83-2.84-1.85-7.57-1-8.68-7C175.9,27.77,178.42,21.81,178.64,20.88Z"/><path class="cls-1" d="M179.68,3.39c3.46-5,5.56,14.39,7.43,14.05,1.95-.88,1-12.38,1.12-14.49.13-2.27,1.17-4.16,3.15-2,1.18,1.3,1.58,3.78,1.9,5.5,1.54,8.5,2.9,15.78-.17,24.16a5.06,5.06,0,0,1-.89,1.8l-9.17-2.75C182.69,25.48,177.2,7,179.68,3.39Z"/><path class="cls-1" d="M192.53,17l.91-1.23c6.57-2.15,6.44,4.33,3.13,8.13-1.39,1.58-3.6,3.59-4.62.95C191.05,22.54,193.24,19.27,192.53,17Z"/><path class="cls-1" d="M194,20.46l1-1.21c7.71-1.93,7.79,4.6,4,8.3-1.59,1.55-4.14,3.49-5.45.8C192.44,26,194.92,22.75,194,20.46Z"/><path class="cls-1" d="M195.37,23.36l.84-1.2c6-2.16,5.78,4.11,2.73,7.82-1.27,1.54-3.3,3.51-4.19,1C194,28.71,196,25.52,195.37,23.36Z"/><path class="cls-6" d="M179.24,132.91c-1.78-27.92,4.15-67.87,3.9-97.09l13.29-1.33c19,46.14,26.67,115.4,7.22,124C194.06,149.57,184.94,145.85,179.24,132.91Z"/><path class="cls-6" d="M211.24,139.73c-.59,14.11-3.07,30.43-7.42,41.92-45.92,121.17-97.23,75-87.17,52.57,11.26-25,58.53-74.86,62.38-102.61A150,150,0,0,1,211.24,139.73Z"/><path class="cls-6" d="M139.14,431.2a116.86,116.86,0,0,0,2.91,22.58s-9.09,8.4-28.73,8.89c-20.72.5-37.51-1.08-52.73-8.23.59-27.68-18.3-113.89-31.23-129-16.82-19.68-30-72.59-17-79.91,3.9-2.2,16.89-7.5,29.31-12.48l6.87-2.75c9.25-3.7,17.06-6.82,18.82-7.74,3.47-1.79,9.46-3.72,7.23-4.48.48.09,71.75-3.89,74.23,0C156.44,230.05,138.09,409.75,139.14,431.2Z"/><path class="cls-1" d="M56,229.29c8.38,21.21,29,29.76,37.46,29.88,14.17.21,10.21-39.81,7.94-40.22l-.93-.16c-4.16-.72-8.58-1.52-9.48-3.59a60.56,60.56,0,0,1-3.64-10.66,37.24,37.24,0,0,1-.81-5,19.8,19.8,0,0,1,1.88-11.4L56.57,170.05c-.24,1.19.44,9,1,18.72,0,.24,0,.49,0,.74.35,5.61.67,11.77.78,17.58,0,1.07,0,2.12,0,3.16C58.52,219.1,57.94,226.63,56,229.29Z"/><path class="cls-7" d="M56,229.28c8.37,21.22,29,29.77,37.46,29.89,14.17.2,10.21-39.82,7.94-40.22l-.07,0c1.43,11.37,1,34-9.63,33.9-7.72-.11-25.65-7.27-35.06-24.72A5.34,5.34,0,0,1,56,229.28Z"/><path class="cls-8" d="M58.44,207.09c12.46,15,30.34,23.3,33.79,22,1.48-.55,6-6.19,8.25-10.33-4.16-.72-8.58-1.52-9.48-3.59a60.56,60.56,0,0,1-3.64-10.66,37.24,37.24,0,0,1-.81-5l-28.89-10C58,195.12,58.33,201.28,58.44,207.09Z"/><path class="cls-9" d="M31.87,117.35c3.05-6.08,6.39-10,13.37-11.9,2.7-.72,6.77.33,7.33-2.33.63-3-5.34-8.11-7.21-10,3.41-2,11.79-1.35,15.56,0a27.41,27.41,0,0,0-2-12.29c5.82-.22,16,2,20.42,5.5,2.15-4.16,5.12-7.41,7.14-11.93,6.53,3.83,11.92,12.79,15.8,19,4.25-3.45,14.16-6.33,19.3-6.35-.54,2.26-2.57,13.28-.66,14.56,2.2,1.48,14.7-5.37,17.13-6.4,2.61,3.85-1.7,22.28-3,26.31,5,1.83,11.57,1.93,17,1.28A94.71,94.71,0,0,1,124.89,157c-5,.49-46.44-38.62-57.13-14.71-1.12,2.52,1.64,6.93.69,9.24-.52,1.25-2.89,1.75-4.08,2.9-2.7,2.62-2.74,7.3-5.24,10-.52-3.1-.92-7.05-2-9.94-2-.18-3.8,1-5.7,1.41-.57-2.47-1.94-5-2.82-7.62-1.16-3.42-.55-4.89.55-8.17-2.88-1.36-10.9-2.17-12.14-4.18-2.7-4.38,3.56-12.72,5.72-15.92A22.19,22.19,0,0,0,31.87,117.35Z"/><path class="cls-1" d="M122.59,158.21c-3.28,1.49-3.71,12.65-3.71,12.65.46,5.15-1.11,10.22,4.91,7.36,4.28-2,9-7.76,9.38-12.52A7.46,7.46,0,0,0,122.59,158.21Z"/><path class="cls-8" d="M131.54,162.94a6.36,6.36,0,0,0-.53-1,8.67,8.67,0,0,0-1.47-1.67,6.88,6.88,0,0,0-1.91-1.21,3.95,3.95,0,0,0-4.48.86,7.28,7.28,0,0,0-1.37,1.91,17.36,17.36,0,0,0-1.47,4.3l1,1s.06,0,.15,0a1.58,1.58,0,0,1,.31.1,3.06,3.06,0,0,1,.63.37,1.28,1.28,0,0,1,.37.41c0,.06,0,0,0,0s0,0,0,0h0l-.15.09a3.27,3.27,0,0,1-.62.23c-.25.07-.52.12-.81.18l-.46.07-.25,0-.27.06.73,2.67.19-.06.23-.08.48-.15c.34-.11.69-.24,1-.39a5.06,5.06,0,0,0,1.11-.66,2.76,2.76,0,0,0,.56-.57,2.16,2.16,0,0,0,.4-.85,2.09,2.09,0,0,0,0-.93,2,2,0,0,0-.38-.87,3.2,3.2,0,0,0-1-.88,4.6,4.6,0,0,0-1.13-.45l-.26,0a13.79,13.79,0,0,1,.82-3.09,6.57,6.57,0,0,1,1-1.73,3.2,3.2,0,0,1,1.56-1,3.42,3.42,0,0,1,2,.06,6.55,6.55,0,0,1,1.86.95,8.35,8.35,0,0,1,1.56,1.47,6,6,0,0,1,.6.89,2.06,2.06,0,0,1,.31,1A2.12,2.12,0,0,0,131.54,162.94Z"/><path class="cls-1" d="M57.08,179.52c.31-12.87,5.34-53.47,12.66-62.37,8.16-9.91,23-17,36.14-13,17,5.28,20,37.95,20.07,41.51,0,1.53-.81,5.07-1.06,11.29-.12,2.85,1.78,8.75,1.62,12.15-1,21.74-15.71,41.17-13.52,48.87,1.24,4.37-7.51,6.21-16.39,5.95C67.05,223.09,56.76,192.7,57.08,179.52Z"/><path class="cls-8" d="M121.86,165.49l-.79-.11-.92-.1c-.35,0-.75-.06-1.17-.12s-.88-.11-1.36-.16-1-.14-1.51-.2-1.06-.11-1.6-.22-1.1-.16-1.66-.24-1.1-.22-1.65-.3-1.08-.21-1.6-.3-1-.17-1.5-.29l-1.36-.26c-.85-.14-1.55-.31-2-.38l-.8-.11s.24.17.68.43l.8.46a11.87,11.87,0,0,0,1.07.53c.4.18.83.37,1.3.56s1,.35,1.49.52,1.07.34,1.63.45,1.14.25,1.71.36l1.74.21a16.42,16.42,0,0,0,1.7.09c.55,0,1.07,0,1.58,0s1-.1,1.43-.15c.22,0,.43,0,.62-.08l.55-.12c.35-.07.65-.15.9-.22C121.58,165.59,121.86,165.49,121.86,165.49Z"/><path class="cls-8" d="M114.82,138.94a16.59,16.59,0,0,1,8.77,2.24c-.55,3-1,17.85-.89,21.53l-17.56-.94C104,160.16,104.38,139.2,114.82,138.94Z"/><path class="cls-7" d="M104.84,161.84c.25.1.49.19.76.27a31.81,31.81,0,0,0,9.05,1.36,37.83,37.83,0,0,0,5.35-.22,8.76,8.76,0,0,0,2.71-.64s0-.44-.07-1.12c-.31-3.06-1.76-11.26-8.54-10-3.6.66-6.51,7-9,10.07A3.61,3.61,0,0,1,104.84,161.84Z"/><path class="cls-10" d="M113.05,159.29a5.49,5.49,0,0,0,1.6,4.18,37.83,37.83,0,0,0,5.35-.22,5.63,5.63,0,0,0,1.46-3.72c.08-2.84-1.74-5.18-4.06-5.25S113.13,156.45,113.05,159.29Z"/><path class="cls-11" d="M115.48,160.18a2.63,2.63,0,1,0,2.67-3.06A2.9,2.9,0,0,0,115.48,160.18Z"/><path class="cls-7" d="M113.49,154.83a41.93,41.93,0,0,1,4.56,4.23,18.84,18.84,0,0,1-5.9-1.95C112.53,156.5,113.11,155.43,113.49,154.83Z"/><path class="cls-12" d="M105.08,161.54c2.52-3.07,5.4-6.61,9-7.26,5.24-1,7.31,2,8.13,4.85a.31.31,0,0,0,0,.08,14.44,14.44,0,0,1,.42,2.28c0-.87-.45-13.65-8.49-12.19-1.26.23-2.43,1.4-3.54,3C108.54,155.18,106.72,159.46,105.08,161.54Z"/><path class="cls-8" d="M70.45,161.74s.3,0,.81,0h.92c.35,0,.75,0,1.18,0h1.36c.48,0,1,0,1.53,0s1.07,0,1.62,0,1.11,0,1.67,0l1.67-.09c.56,0,1.1-.08,1.63-.11s1,0,1.53-.1l1.38-.09c.85,0,1.57-.12,2.08-.13s.81,0,.81,0-.26.14-.73.34l-.85.36c-.33.13-.71.28-1.13.4s-.87.27-1.36.4-1,.22-1.54.33-1.1.21-1.67.25-1.16.1-1.75.15H77.86a15.43,15.43,0,0,1-1.69-.13A14.84,14.84,0,0,1,74.6,163c-.5-.1-1-.21-1.4-.32-.21-.05-.42-.09-.61-.15l-.53-.19c-.34-.11-.62-.23-.86-.32Z"/><path class="cls-8" d="M82.23,136a16.68,16.68,0,0,1,8.62,2.8c-.75,2.94-2.18,17.75-2.27,21.43l-17.47-2C70.11,156.53,71.79,135.63,82.23,136Z"/><path class="cls-7" d="M70.69,158.32c.87.68,4.09,1.54,7.84,2,1,.12,2,.21,3,.25h.16c.71,0,1.42.05,2.12,0a23.38,23.38,0,0,0,3.95-.36c.27,0,.53-.1.79-.16-.07-.11-.14-.22-.2-.33-2-3.39-4-10.08-7.5-11.23-6.55-2.19-9.14,5.73-9.87,8.71C70.77,157.9,70.69,158.32,70.69,158.32Z"/><path class="cls-10" d="M78.53,160.3c1,.12,2,.21,3,.25h.16c.71,0,1.42.05,2.12,0a5.52,5.52,0,0,0,1.82-3.83c.22-2.84-1.5-5.27-3.81-5.44s-4.37,2-4.58,4.82A5.55,5.55,0,0,0,78.53,160.3Z"/><path class="cls-11" d="M79.14,157.23a2.9,2.9,0,0,0,2.34,3.32h.16a3,3,0,0,0,2.64-2.95,2.63,2.63,0,1,0-5.14-.38Z"/><path class="cls-7" d="M76.4,151.71a42.23,42.23,0,0,1,5,3.71,18.87,18.87,0,0,1-6.07-1.3C75.63,153.47,76.09,152.35,76.4,151.71Z"/><path class="cls-12" d="M88.3,159.74c-2.06-3.39-4.41-7.3-7.88-8.45-5-1.68-7.52,1-8.73,3.66a.41.41,0,0,1,0,.08,14,14,0,0,0-.73,2.19c.14-.85,2.36-13.45,10.11-10.87,1.21.4,2.21,1.72,3.09,3.43C85.77,153,87,157.45,88.3,159.74Z"/><path class="cls-9" d="M129.47,143.62c.75.52-7.94-.33-7.94-.33a5.45,5.45,0,0,0-.33-2.22c-.37.37-.52,1.78-.66,2.29a92.32,92.32,0,0,1-10.74-1.65c.08-1.1,2.13-4.67,3.26-5.24A34.56,34.56,0,0,1,129.47,143.62Z"/><path class="cls-9" d="M73.35,134.08c-.78.48,7.94.13,7.94.13a5.27,5.27,0,0,1,.47-2.19,7.49,7.49,0,0,1,.52,2.32,92.09,92.09,0,0,0,10.82-1c0-1.11-1.86-4.79-2.95-5.42A34.52,34.52,0,0,0,73.35,134.08Z"/><path class="cls-8" d="M104.89,178.26c1.55-.61,6.38-4.24,7.56-.54,1.36,4.27-13.78,10.67-20.83-1.06C95.24,179,101.05,179.79,104.89,178.26Z"/><path class="cls-8" d="M105.49,143.89c-.83,2.24-7.16,26.29,4.75,32.89L103.93,179C99.39,172.67,98.55,154.43,105.49,143.89Z"/><path class="cls-13" d="M73.42,184.68a31.18,31.18,0,0,0,2.38,7.23c.27.56.56,1.12.86,1.68.22.39.44.78.68,1.16s.51.8.78,1.19h0c3.38,4.88,8.49,8.73,15.49,8.93a31.31,31.31,0,0,0,8.15-.71,18.24,18.24,0,0,0,3.3-1.09c6.59-2.93,7.25-8.46,8.37-9.61,0,0-.77-.13-2.23-.41l-4.8-.94C99.55,190.74,88,188.29,73.42,184.68Z"/><path class="cls-7" d="M73.42,184.68a31.18,31.18,0,0,0,2.38,7.23c.27.56.56,1.12.86,1.68,9.6,2.76,23.76,5.56,27.35,5.29,3.16-.23,5.54-3,7.19-5.82l-4.8-.94C99.55,190.74,88,188.29,73.42,184.68Z"/><path class="cls-14" d="M75.8,191.91c.27.56.56,1.12.86,1.68,9.6,2.76,23.76,5.56,27.35,5.29,3.16-.23,5.54-3,7.19-5.82l-4.8-.94c-1.07,1.68-2.28,3.14-3.06,3.29C100.43,196,87,194.52,75.8,191.91Z"/><path class="cls-7" d="M77.34,194.75c.25.41.51.8.78,1.19h0c3.38,4.88,8.49,8.73,15.49,8.93a31.31,31.31,0,0,0,8.15-.71,18.24,18.24,0,0,0,3.3-1.09,5.48,5.48,0,0,0-2.18-2.34C99.92,199.09,85.43,195.69,77.34,194.75Z"/><path class="cls-14" d="M77.34,194.75c.25.41.51.8.78,1.19h0c9.59,1.87,21,5.7,23,7.19a2.19,2.19,0,0,1,.6,1,18.24,18.24,0,0,0,3.3-1.09,5.48,5.48,0,0,0-2.18-2.34C99.92,199.09,85.43,195.69,77.34,194.75Z"/><path class="cls-8" d="M77.37,196.47l-.17-.26h0c-.22-.32-.43-.64-.63-1s-.48-.8-.72-1.22c-.31-.58-.61-1.16-.88-1.72a31.7,31.7,0,0,1-2.44-7.45l-.27-1.41,1.38.35c14.57,3.6,26,6,32.94,7.43,2,.41,3.62.72,4.79.94,1.45.28,2.22.41,2.22.41l1.69.31-1.2,1.23a6.47,6.47,0,0,0-.68,1.33,14.83,14.83,0,0,1-8,8.47,19.5,19.5,0,0,1-3.46,1.15,32.78,32.78,0,0,1-8.38.73h0C85.35,205.55,80.22,200.59,77.37,196.47ZM111,194c-1.17-.22-2.79-.54-4.81-1-6.77-1.35-17.67-3.68-31.59-7.1a30.35,30.35,0,0,0,2,5.6c.26.53.54,1.09.83,1.63.22.38.44.76.67,1.13s.49.77.75,1.15l.1.15c2.63,3.75,7.29,8.18,14.65,8.39h0a30.49,30.49,0,0,0,7.91-.68,17.79,17.79,0,0,0,3.14-1,13,13,0,0,0,7-7.54l.25-.56Z"/><path class="cls-8" d="M99.71,209.22a19.59,19.59,0,0,1-4.23,1.93c-3-4.78-5-5-8.74-6.47C86.74,204.68,96.82,205.74,99.71,209.22Z"/><path class="cls-1" d="M59,150.9c3.7,2.41,2.18,16,2.18,16-1.51,6.15-.54,12.59-7.32,8-4.81-3.24-9.42-11.05-9.07-16.91A9.15,9.15,0,0,1,59,150.9Z"/><path class="cls-8" d="M47.28,155a7.31,7.31,0,0,1,.82-1.08,10.61,10.61,0,0,1,2.09-1.75,8.41,8.41,0,0,1,2.54-1.12,5.09,5.09,0,0,1,2.89.08A5,5,0,0,1,58,152.92a8.68,8.68,0,0,1,1.31,2.57,21.74,21.74,0,0,1,1,5.49l-1.44,1s-.08,0-.2,0a2.16,2.16,0,0,0-.39.07,3.51,3.51,0,0,0-.83.33,1.58,1.58,0,0,0-.53.43c0,.08,0,0,0,0s0,.05,0,0,0,0,.05,0l.17.14a4.27,4.27,0,0,0,.7.39,9.44,9.44,0,0,0,1,.36l.54.18.3.09.32.12-1.38,3.11-.22-.12-.26-.13-.56-.27c-.39-.2-.78-.41-1.19-.67a6.32,6.32,0,0,1-1.22-1,3.51,3.51,0,0,1-.58-.79,2.94,2.94,0,0,1-.33-1.11,2.74,2.74,0,0,1,.16-1.13,2.57,2.57,0,0,1,.62-1,4.06,4.06,0,0,1,1.45-.88,5.91,5.91,0,0,1,1.44-.33,1.83,1.83,0,0,1,.33,0,17.33,17.33,0,0,0-.42-3.9,8,8,0,0,0-.9-2.28,3.94,3.94,0,0,0-1.7-1.56,4.2,4.2,0,0,0-2.37-.28,7.91,7.91,0,0,0-2.43.81,10.33,10.33,0,0,0-2.17,1.49,7.42,7.42,0,0,0-.89,1,2.52,2.52,0,0,0-.56,1.19A2.59,2.59,0,0,1,47.28,155Z"/><path class="cls-9" d="M76.29,97.42c9.71-4.8,20.57-3.87,30.36-.43,0,0,28.38,31.44,28.66,34.19-4.55.28-16.7,2-19.07,4.65a75.62,75.62,0,0,0-4.53-9.63c-1.29-2.2-3.67-4.56-4.44-6.94-3.52-.3-6.38,1.56-8.84,3.72-.82-2-.39-4.64-1-6.68-6.24,1.38-11.25,5.35-17,9.77-.27-.52-1.07-7.94-1.33-8.49-4,3.19-8.08,9.15-10.4,13.64-2.07,4-2.25,12.95-3.86,17.25-7.75-10.35-4.65-24-1.77-33.69C65.21,107.46,69.28,100.88,76.29,97.42Z"/><path class="cls-15" d="M155.28,217.21c-2.48,8.79,4.61,18.47,15.83,21.62s22.3-1.42,24.77-10.21-4.61-18.46-15.83-21.62S157.75,208.42,155.28,217.21Z"/><path class="cls-15" d="M165.81,220.86a5.86,5.86,0,0,0,4.06,7.23l48.5,13.63a5.86,5.86,0,0,0,7.23-4.05l.36-1.28a5.87,5.87,0,0,0-4.06-7.23l-48.5-13.63a5.86,5.86,0,0,0-7.23,4.05Z"/><polygon class="cls-15" points="209.83 792 273.68 825.96 267.12 825.85 205.65 801.4 209.83 792"/><polygon class="cls-15" points="202.12 792 137.92 825.96 145.6 825.85 206.3 801.4 202.12 792"/><polygon class="cls-15" points="210.3 797.22 227.58 827.12 221.83 827.12 195.69 798.91 210.3 797.22"/><rect class="cls-15" x="201.65" y="209.38" width="8.65" height="589.53"/><path class="cls-16" d="M38.68,248.83c14,19.85,34.78,81.67,53.63,105.84-7.68,9-20.24,12.88-29.05,20.7-9.06-6.67-17.75-17.49-23.57-24.75C-41.37,249.51,24.52,228.79,38.68,248.83Z"/><path class="cls-1" d="M201.65,317.73s-11.62,13.08-22.22,18.6c-2.48,1.3-.28,3.81-.57,6.63-.45,4.42,5.3,3.43,5.18,7.82,0,0,22.4-.64,25.14-2.27,4.38-2.61,2.82-6.22,3.66-10.15.28-1.32,1.49-2.56,1.71-4.54.2-1.77-.46-7.51-1.69-9.36-3.94-6.81-4.81,4.29-10.57,1.68C202.06,321.31,202.06,318.77,201.65,317.73Z"/><path class="cls-16" d="M79.27,347.24C98,336,150.39,339.56,179.43,336.33l6.81,13.89c-44,23.64-116.78,39.44-127.27,21C66.82,360.74,67,354.23,79.27,347.24Z"/></svg>